<svg width="174" height="64" viewBox="0 0 174 64" fill="none" xmlns="http://www.w3.org/2000/svg">
<path d="M173.166 17.2308C169.712 16.2392 165.778 15.5393 161.786 15.5393C147.844 15.5393 139.266 24.3542 139.266 36.7296C139.266 49.1051 146.831 56.1143 159.582 56.1143C164.41 56.1143 169.355 55.241 173.348 53.6616V34.8647H165.601V48.585C164.051 49.0522 162.383 49.2827 160.476 49.2827C152.313 49.2827 147.667 44.3795 147.667 36.0319C147.667 27.2128 153.387 22.3117 161.309 22.3117C165.066 22.3117 168.758 23.0686 171.975 24.295L173.166 17.2308ZM129.972 16.1229H122.223V55.5307H129.972V16.1229ZM103.814 43.5612C103.814 47.1218 101.253 49.4561 96.1881 49.4561C94.3992 49.4561 92.9103 49.3398 91.9587 49.2235V38.1886C92.7916 38.1315 94.7596 38.1315 95.353 38.1315C100.418 38.1315 103.814 39.7067 103.814 43.5612ZM103.158 26.8639C103.158 30.3675 100.418 32.4692 95.1157 32.4692C93.8641 32.4692 92.9103 32.4692 91.9587 32.41V22.1341C93.3289 22.0749 94.8761 22.0178 96.4859 22.0178C101.371 22.0178 103.158 23.944 103.158 26.8618M112.096 43.3857C112.096 39.417 109.714 35.5625 104.945 34.5709V34.4524C108.758 32.9935 111.319 29.5492 111.319 25.6376C111.319 19.3325 106.492 15.8861 97.7958 15.8861C92.8499 15.8861 87.6041 16.0024 84.2097 16.18V55.5307C89.2743 55.5307 93.5037 55.647 95.9486 55.647C108.102 55.647 112.096 49.1072 112.096 43.3857Z" fill="black"/>
<path d="M60.3568 50.0774H54.0363V56.1499H6.28883V50.0774H0.0892334V63.3663H60.3568V50.0774Z" fill="black"/>
<path d="M60.3569 0.634277H0.0893555V13.8618H6.28895V7.85066H54.0364V13.8618H60.3569V0.634277Z" fill="black"/>
</svg>
