<svg width="190" height="68" viewBox="0 0 190 68" fill="none" xmlns="http://www.w3.org/2000/svg">
<path d="M26.1184 34.7959C27.8921 33.0222 29.362 31.3579 30.5282 29.803C31.6944 28.2601 32.642 26.5473 33.3952 24.6643C34.1484 22.7935 34.525 20.7647 34.525 18.6024C34.525 15.1644 33.6746 12.0545 31.9738 9.28474C30.2731 6.51496 27.9285 4.32829 24.9522 2.70044C21.9759 1.09689 18.6352 0.282959 14.9178 0.282959H0.182129V40.8942H20.2023L26.1184 34.7959ZM6.62065 34.7473V6.42992H13.8124C16.5214 6.46637 18.9389 7.09807 21.0648 8.31289C23.1907 9.5277 24.8429 11.1798 26.0212 13.2693C27.1996 15.3588 27.7949 17.7399 27.7949 20.4003C27.7949 23.0607 27.2118 25.6119 26.0577 27.7985C24.8915 29.9852 23.3487 31.6859 21.4171 32.9007C19.4855 34.1156 17.4204 34.723 15.2094 34.723H6.62065V34.7473ZM40.6233 17.7399H86.2761V23.4252H40.6233V17.7399ZM98.1448 30.8599H115.492L118.93 40.8942H125.952L111.739 0.282959H102.105L87.9647 40.8942H94.6947L98.1448 30.8599ZM106.867 5.5917L113.403 24.7007H100.271L106.867 5.5917ZM135.95 24.069C135.95 22.016 136.448 20.4975 137.432 19.4892C138.416 18.4809 139.922 17.9828 141.927 17.9828H145.583V11.5443H140.481L135.962 16.2092V11.5321H129.754V40.8821H135.962V24.069H135.95ZM154.318 40.8942H160.526V17.339H166.855V11.5321H160.526V2.83407H154.318V11.5321H148.062V17.339H154.318V40.8942ZM187.847 26.5959C186.681 25.1867 184.81 24.1541 182.222 23.4859L178.626 22.5627C177.509 22.2954 176.658 21.9067 176.1 21.3964C175.541 20.8984 175.261 20.2545 175.261 19.477C175.261 18.5902 175.614 17.837 176.306 17.2175C176.998 16.5979 177.934 16.2942 179.088 16.2942C180.364 16.2942 181.348 16.6344 182.052 17.3147C182.745 17.995 183.133 18.8696 183.218 19.9508H189.426C189.426 18.2501 189.025 16.7194 188.236 15.371C187.446 14.0225 186.304 12.9413 184.81 12.1517C183.316 11.3621 181.53 10.9612 179.44 10.9612C178.553 10.9612 177.752 11.0462 177.035 11.2163C176.318 11.3864 175.772 11.5929 175.383 11.8237L172.37 14.9579C170.475 16.8895 169.527 18.9182 169.527 21.0441C169.527 22.672 170.025 24.1176 171.009 25.3932C171.993 26.6687 173.743 27.6527 176.257 28.3573L179.975 29.3413C181.323 29.6936 182.283 30.1553 182.842 30.7384C183.401 31.3215 183.68 32.0139 183.68 32.8279C183.68 33.7147 183.303 34.4921 182.55 35.1482C181.797 35.8041 180.764 36.1321 179.44 36.1321C178.323 36.1321 177.387 35.8649 176.658 35.3425C175.917 34.8202 175.456 33.9576 175.261 32.755H169.041C169.041 35.3911 169.953 37.4927 171.763 39.0842C173.585 40.6756 176.014 41.4652 179.076 41.4652C179.963 41.4652 180.825 41.3923 181.651 41.2587C182.477 41.125 183.097 40.955 183.473 40.7606L186.438 37.6871C187.519 36.6059 188.308 35.5369 188.819 34.4679C189.317 33.411 189.572 32.2933 189.572 31.1271C189.572 29.5236 189.001 28.005 187.847 26.5959ZM6.9365 53.2246C6.36554 52.933 5.69739 52.7873 4.9442 52.7873H0.182129V64.6925H2.06509V60.4406H5.70954L7.15517 58.9464C7.67754 58.3997 8.06628 57.9138 8.33354 57.4643C8.58865 57.027 8.72228 56.5167 8.72228 55.9336C8.72228 55.3505 8.56435 54.8646 8.26065 54.3787C7.95695 53.8927 7.51961 53.5162 6.9365 53.2246ZM6.51132 57.683C6.32909 58.011 6.06183 58.2539 5.73383 58.4362C5.41798 58.6184 5.04139 58.7156 4.6405 58.7156H2.06509V54.5609H4.60406C5.24791 54.5609 5.78243 54.7553 6.18332 55.144C6.59635 55.5327 6.79072 56.0187 6.79072 56.6261C6.80287 57.0027 6.70569 57.355 6.51132 57.683ZM11.8687 57.4643V56.0916H10.0464V64.6925H11.8687V59.7603C11.8687 59.1529 12.0144 58.7156 12.306 58.4119C12.5975 58.1203 13.0349 57.9745 13.618 57.9745H14.687V56.0916H13.1928L11.8687 57.4643ZM23.215 58.011C22.8263 57.3671 22.3039 56.8569 21.6479 56.4925C20.9798 56.1159 20.2509 55.9336 19.4612 55.9336C19.1211 55.9336 18.8052 55.9701 18.5258 56.0308C18.2464 56.0916 18.0278 56.1645 17.882 56.2616L16.5092 57.6708C16.0719 58.1203 15.7439 58.6062 15.5252 59.1043C15.3066 59.6024 15.2094 60.149 15.2094 60.7079C15.2094 61.461 15.4038 62.1535 15.7925 62.7852C16.1812 63.429 16.7036 63.9393 17.3596 64.3037C18.0156 64.6682 18.7567 64.8625 19.5463 64.8625C19.8621 64.8625 20.1537 64.8382 20.4209 64.7775C20.6882 64.7168 20.9312 64.6439 21.162 64.5345L22.4497 63.1861C22.9235 62.7002 23.2636 62.2021 23.4823 61.6919C23.6888 61.1816 23.7981 60.6471 23.7981 60.0883C23.7981 59.3473 23.6038 58.6427 23.215 58.011ZM21.7329 62.032C21.5143 62.4207 21.2227 62.7123 20.8704 62.9067C20.5181 63.101 20.1537 63.2104 19.7649 63.2104C19.3155 63.2104 18.866 63.0767 18.4287 62.8095C17.9913 62.5422 17.639 62.1778 17.3596 61.7162C17.0924 61.2545 16.9466 60.7322 16.9466 60.149C16.9466 59.6145 17.0559 59.1529 17.2746 58.7763C17.4932 58.3997 17.7727 58.096 18.1128 57.9016C18.4529 57.7073 18.8295 57.5979 19.2304 57.5979C19.6799 57.5979 20.1294 57.7316 20.5667 57.9988C21.0041 58.2661 21.3564 58.6305 21.6358 59.0922C21.9152 59.5538 22.0488 60.0762 22.0488 60.6593C22.0609 61.1816 21.9516 61.6433 21.7329 62.032ZM25.3167 53.0302H27.6005V55.144H25.3167V53.0302ZM25.5353 64.8504C25.5353 65.227 25.4503 65.4942 25.2924 65.6643C25.1344 65.8344 24.8672 65.9194 24.4906 65.9194H23.6524V67.7173H25.1466L26.495 66.3446C26.8109 66.0045 27.0295 65.6522 27.1632 65.2999C27.2847 64.9476 27.3454 64.4616 27.3454 63.8421V56.0916H25.5232V64.8504H25.5353ZM37.234 59.493C37.1368 58.7034 36.906 58.0353 36.5051 57.5007C36.1164 56.9662 35.6426 56.5775 35.0838 56.3102C34.525 56.0551 33.954 55.9215 33.3709 55.9215C32.7878 55.9215 32.2654 56.0187 31.8767 56.2252L30.5647 57.5858C30.0909 58.0717 29.7264 58.5819 29.4713 59.1043C29.2162 59.6267 29.0947 60.2098 29.0947 60.8415C29.0947 61.619 29.277 62.3236 29.6535 62.9188C30.0301 63.5262 30.5404 64 31.1842 64.3523C31.8281 64.7046 32.5448 64.8747 33.3466 64.8747C33.9904 64.8747 34.5978 64.7653 35.1445 64.5345C35.7033 64.3037 36.1771 63.9879 36.5901 63.587L35.6912 62.2264C35.4239 62.4815 35.0959 62.7123 34.7436 62.8824C34.3792 63.0646 33.954 63.1496 33.4559 63.1496C33.0064 63.1496 32.5934 63.0646 32.229 62.8824C31.8645 62.7002 31.573 62.4572 31.33 62.1292C31.0992 61.8012 30.9534 61.4246 30.8805 60.9873H35.8127L37.234 59.493ZM30.9655 59.5295C31.0506 59.1407 31.2085 58.8006 31.415 58.509C31.6215 58.2175 31.8767 57.9867 32.1925 57.8287C32.4962 57.6708 32.8364 57.5858 33.2008 57.5858C33.6503 57.5858 34.039 57.6708 34.3549 57.8409C34.6707 58.011 34.9258 58.2418 35.1081 58.5333C35.2903 58.8249 35.4239 59.1529 35.509 59.5295H30.9655ZM46.2358 56.0916H43.879L40.599 59.7482V52.7994H38.7768V64.6925H40.599V60.1976L44.0855 64.6925H46.4423L42.482 60.0033L46.2358 56.0916ZM50.7184 53.5405H48.8962V56.0916H47.0618V57.7923H48.8962V64.6925H50.7184V57.7923H52.5771V56.0916H50.7184V53.5405ZM60.3155 56.4803C59.6716 56.1037 58.9549 55.9215 58.1774 55.9215C57.9101 55.9215 57.6307 55.9458 57.3635 55.9944C57.0962 56.043 56.9018 56.1037 56.7561 56.1766L55.687 57.2942V52.7994H53.8648V64.7046H55.687V63.6842C55.7964 63.8178 55.9178 63.9514 56.0636 64.0729C56.3552 64.328 56.7075 64.5224 57.1084 64.656C57.5093 64.8018 57.9344 64.8747 58.3961 64.8747C58.6512 64.8747 58.9063 64.8504 59.1493 64.8018C59.3922 64.7532 59.5866 64.6803 59.7567 64.5831L60.9229 63.3562C61.4453 62.7973 61.8218 62.2628 62.0527 61.7283C62.2835 61.1938 62.405 60.6714 62.405 60.1247C62.405 59.3716 62.2227 58.667 61.8461 58.011C61.4696 57.3671 60.9593 56.8569 60.3155 56.4803ZM60.3519 62.032C60.1454 62.4207 59.866 62.7123 59.5137 62.9067C59.1614 63.101 58.7848 63.2104 58.3961 63.2104C57.9344 63.2104 57.485 63.0889 57.0476 62.8459C56.6224 62.603 56.258 62.2507 55.9907 61.789C55.7235 61.3274 55.5777 60.7807 55.5777 60.149C55.5777 59.6145 55.687 59.1529 55.9057 58.7763C56.1244 58.3876 56.4038 58.096 56.7561 57.9016C57.1084 57.7073 57.485 57.5979 57.898 57.5979C58.3475 57.5979 58.7848 57.7194 59.21 57.9502C59.6352 58.1932 59.9875 58.5455 60.2547 59.0071C60.522 59.4687 60.6678 60.0154 60.6678 60.635C60.6556 61.1816 60.5584 61.6433 60.3519 62.032ZM68.3211 53.1031H70.2648V55.059H68.3211V53.1031ZM65.1504 53.1031H67.0941V55.059H65.1504V53.1031ZM69.5116 61.133C69.5116 61.7405 69.3416 62.2385 69.0136 62.5908C68.6856 62.9431 68.2361 63.1375 67.7016 63.1375C67.167 63.1375 66.7176 62.9553 66.3896 62.5908C66.0616 62.2264 65.8915 61.7405 65.8915 61.133V56.1037H64.0936V61.5339C64.0936 62.2507 64.2393 62.8581 64.5309 63.3562C64.8224 63.8664 65.2112 64.243 65.685 64.4981C66.1587 64.7532 66.6568 64.8747 67.1792 64.8747C67.7502 64.8747 68.1875 64.7896 68.4912 64.6196L69.5238 63.5262V64.6925H71.3217V56.0916H69.5238V61.133H69.5116ZM75.4156 57.4643V56.0916H73.5934V64.6925H75.4156V59.7603C75.4156 59.1529 75.5614 58.7156 75.853 58.4119C76.1445 58.1203 76.5818 57.9745 77.165 57.9745H78.234V56.0916H76.7398L75.4156 57.4643ZM85.1949 56.4803C84.5267 56.1037 83.7979 55.9215 83.0082 55.9215C82.6681 55.9215 82.3522 55.9579 82.0728 56.0187C81.7934 56.0794 81.5747 56.1523 81.429 56.2495L80.0562 57.6587C79.6189 58.1082 79.2909 58.5941 79.0722 59.0922C78.8536 59.5902 78.7564 60.1369 78.7564 60.6957C78.7564 61.4489 78.9507 62.1413 79.3395 62.773C79.7282 63.4169 80.2506 63.9271 80.9066 64.2916C81.5626 64.656 82.3036 64.8504 83.0933 64.8504C83.4091 64.8504 83.7007 64.8261 83.9679 64.7653C84.2352 64.7046 84.4782 64.6317 84.709 64.5224L85.9967 63.1739C86.4704 62.688 86.8106 62.1899 87.0293 61.6797C87.2358 61.1695 87.3451 60.635 87.3451 60.0762C87.3451 59.323 87.1507 58.6184 86.762 57.9745C86.3733 57.3307 85.8509 56.8569 85.1949 56.4803ZM85.2799 62.032C85.0613 62.4207 84.7697 62.7123 84.4174 62.9067C84.0651 63.101 83.7007 63.2104 83.3119 63.2104C82.8624 63.2104 82.413 63.0767 81.9756 62.8095C81.5383 62.5422 81.186 62.1778 80.9066 61.7162C80.6393 61.2545 80.4936 60.7322 80.4936 60.149C80.4936 59.6145 80.6029 59.1529 80.8216 58.7763C81.0402 58.3997 81.3196 58.096 81.6598 57.9016C81.9999 57.7073 82.3765 57.5979 82.7774 57.5979C83.2269 57.5979 83.6764 57.7316 84.1137 57.9988C84.551 58.2661 84.9033 58.6305 85.1827 59.0922C85.4622 59.5538 85.5958 60.0762 85.5958 60.6593C85.6079 61.1816 85.4986 61.6433 85.2799 62.032ZM94.3667 54.4394C94.1724 54.6459 94.0266 54.8403 93.9416 55.0225C93.8444 55.2047 93.7958 55.4234 93.7836 55.6664V56.0916H92.1801V57.7802H93.7836V64.7046H95.5816V57.7802H97.5253V56.0916H95.5816V55.5449C95.5816 55.1805 95.6544 54.9253 95.8124 54.7674C95.9703 54.6095 96.2254 54.5245 96.602 54.5245H97.5253V52.7873H95.9217L94.3667 54.4394ZM99.8699 53.1031H101.814V55.059H99.8699V53.1031ZM103.053 53.1031H104.996V55.059H103.053V53.1031ZM104.243 61.133C104.243 61.7405 104.073 62.2385 103.745 62.5908C103.417 62.9431 102.968 63.1375 102.433 63.1375C101.899 63.1375 101.449 62.9553 101.121 62.5908C100.793 62.2264 100.623 61.7405 100.623 61.133V56.1037H98.8251V61.5339C98.8251 62.2507 98.9709 62.8581 99.2625 63.3562C99.554 63.8664 99.9427 64.243 100.417 64.4981C100.89 64.7532 101.388 64.8747 101.911 64.8747C102.482 64.8747 102.919 64.7896 103.223 64.6196L104.255 63.5262V64.6925H106.053V56.0916H104.255V61.133H104.243ZM110.147 57.4643V56.0916H108.325V64.6925H110.147V59.7603C110.147 59.1529 110.293 58.7156 110.585 58.4119C110.876 58.1203 111.313 57.9745 111.897 57.9745H112.966V56.0916H111.471L110.147 57.4643ZM125.818 53.504C124.944 53.0302 123.96 52.7873 122.878 52.7873H118.554V64.6925H124.421L126.158 62.9067C126.681 62.3843 127.106 61.8984 127.446 61.4489C127.786 60.9994 128.066 60.4892 128.284 59.9425C128.503 59.3959 128.612 58.8006 128.612 58.1689C128.612 57.1606 128.357 56.2495 127.859 55.4356C127.385 54.6338 126.693 53.9899 125.818 53.504ZM126.146 60.8658C125.806 61.5096 125.357 62.0077 124.786 62.36C124.215 62.7123 123.607 62.8945 122.963 62.8945H120.449V54.5973H122.563C123.352 54.5973 124.069 54.7917 124.689 55.1562C125.308 55.5084 125.794 55.9944 126.146 56.6139C126.499 57.2213 126.669 57.9259 126.669 58.7034C126.669 59.5052 126.486 60.2219 126.146 60.8658ZM130.155 53.0302H132.439V55.144H130.155V53.0302ZM130.386 56.0916H132.208V64.6925H130.386V56.0916ZM137.723 63.0403L135.391 56.0916H133.411L136.521 64.6925H138.853L141.963 56.0916H139.983L137.723 63.0403ZM150.516 59.493C150.418 58.7034 150.188 58.0353 149.787 57.5007C149.398 56.9662 148.924 56.5775 148.365 56.3102C147.806 56.0551 147.236 55.9215 146.652 55.9215C146.069 55.9215 145.547 56.0187 145.158 56.2252L143.846 57.5858C143.372 58.0717 143.008 58.5819 142.753 59.1043C142.498 59.6267 142.376 60.2098 142.376 60.8415C142.376 61.619 142.558 62.3236 142.935 62.9188C143.312 63.5262 143.822 64 144.466 64.3523C145.11 64.7046 145.826 64.8747 146.628 64.8747C147.272 64.8747 147.879 64.7653 148.426 64.5345C148.985 64.3037 149.459 63.9879 149.872 63.587L148.973 62.2264C148.705 62.4815 148.377 62.7123 148.025 62.8824C147.661 63.0646 147.236 63.1496 146.737 63.1496C146.288 63.1496 145.875 63.0646 145.51 62.8824C145.146 62.7002 144.854 62.4572 144.611 62.1292C144.381 61.8012 144.235 61.4246 144.162 60.9873H149.094L150.516 59.493ZM144.235 59.5295C144.32 59.1407 144.478 58.8006 144.684 58.509C144.891 58.2175 145.146 57.9867 145.462 57.8287C145.766 57.6708 146.106 57.5858 146.47 57.5858C146.92 57.5858 147.308 57.6708 147.624 57.8409C147.94 58.011 148.195 58.2418 148.377 58.5333C148.56 58.8249 148.693 59.1529 148.778 59.5295H144.235ZM153.868 57.4643V56.0916H152.046V64.6925H153.868V59.7603C153.868 59.1529 154.014 58.7156 154.306 58.4119C154.597 58.1203 155.035 57.9745 155.618 57.9745H156.687V56.0916H155.193L153.868 57.4643ZM161.412 59.6024L160.356 59.3351C160.028 59.2622 159.785 59.1407 159.614 58.995C159.457 58.8492 159.371 58.6548 159.371 58.4362C159.371 58.181 159.469 57.9502 159.675 57.7802C159.882 57.5979 160.149 57.5129 160.489 57.5129C160.866 57.5129 161.157 57.6101 161.352 57.8166C161.546 58.0231 161.667 58.2782 161.692 58.5941H163.514C163.514 58.096 163.393 57.6465 163.162 57.2456C162.931 56.8447 162.591 56.541 162.153 56.2981C161.716 56.0673 161.194 55.9458 160.586 55.9458C160.331 55.9458 160.088 55.9701 159.882 56.0187C159.675 56.0673 159.505 56.128 159.396 56.2009L158.509 57.1242C157.95 57.6951 157.671 58.2904 157.671 58.9099C157.671 59.3837 157.817 59.8089 158.108 60.1855C158.4 60.5621 158.91 60.8536 159.651 61.048L160.744 61.3396C161.145 61.4367 161.425 61.5825 161.582 61.7526C161.753 61.9227 161.825 62.1292 161.825 62.36C161.825 62.6151 161.716 62.8459 161.497 63.0403C161.279 63.2347 160.975 63.3319 160.586 63.3319C160.258 63.3319 159.979 63.259 159.772 63.101C159.554 62.9431 159.42 62.7002 159.359 62.3479H157.537C157.537 63.1132 157.804 63.7327 158.339 64.2065C158.873 64.6682 159.59 64.899 160.477 64.899C160.732 64.899 160.987 64.8747 161.23 64.8382C161.473 64.8018 161.655 64.7532 161.765 64.6925L162.627 63.7935C162.943 63.4776 163.174 63.1618 163.32 62.8459C163.465 62.5301 163.538 62.2142 163.538 61.8741C163.538 61.4003 163.368 60.9508 163.028 60.5378C162.724 60.0883 162.178 59.7846 161.412 59.6024ZM165.409 56.0916H167.231V64.6925H165.409V56.0916ZM165.178 53.0302H167.462V55.144H165.178V53.0302ZM172.188 53.5405H170.378V56.0916H168.531V57.7923H170.378V64.6925H172.188V57.7923H174.046V56.0916H172.188V53.5405ZM179.999 56.2252C179.525 56.0308 178.979 55.9215 178.383 55.9215C177.837 55.9215 177.326 56.0308 176.853 56.2373C176.379 56.4439 175.99 56.7476 175.674 57.1485C175.371 57.5493 175.201 57.9988 175.176 58.5212H177.011C177.084 58.1689 177.229 57.9016 177.46 57.7194C177.691 57.5372 178.007 57.44 178.383 57.44C178.809 57.44 179.149 57.5736 179.38 57.853C179.61 58.1325 179.732 58.4847 179.732 58.9464V59.8332C179.659 59.7724 179.574 59.6996 179.477 59.6388C179.282 59.5295 179.052 59.4323 178.796 59.3594C178.541 59.2865 178.262 59.2501 177.958 59.2501C177.387 59.2501 176.877 59.3716 176.403 59.6024C175.929 59.8453 175.553 60.1733 175.286 60.6107C175.006 61.048 174.873 61.5461 174.873 62.1049C174.873 62.6637 175.006 63.1496 175.261 63.5748C175.516 64 175.881 64.328 176.33 64.5467C176.78 64.7653 177.266 64.8747 177.8 64.8747C178.068 64.8747 178.298 64.8504 178.493 64.8018C178.675 64.7532 178.869 64.6925 179.052 64.6196L179.744 63.915V64.7046H181.542V58.7156C181.542 58.0839 181.396 57.5615 181.129 57.1485C180.849 56.7233 180.473 56.4196 179.999 56.2252ZM179.076 63.1739C178.833 63.2954 178.578 63.3562 178.298 63.3562C177.873 63.3562 177.509 63.2225 177.205 62.9674C176.913 62.7123 176.768 62.3843 176.768 61.9956C176.768 61.7405 176.828 61.5218 176.962 61.3031C177.096 61.0966 177.278 60.9265 177.509 60.805C177.74 60.6836 178.007 60.6228 178.298 60.6228C178.724 60.6228 179.1 60.7565 179.392 61.0116C179.695 61.2667 179.841 61.5947 179.841 61.9591C179.841 62.2142 179.768 62.4329 179.635 62.6516C179.501 62.8702 179.319 63.0403 179.076 63.1739ZM175.808 53.1031H177.752V55.059H175.808V53.1031ZM178.991 53.1031H180.934V55.059H178.991V53.1031ZM186.413 53.5405H184.591V56.0916H182.757V57.7923H184.591V64.6925H186.413V57.7923H188.26V56.0916H186.413V53.5405Z" fill="black"/>
</svg>
