<svg width="79" height="79" viewBox="0 0 79 79" fill="none" xmlns="http://www.w3.org/2000/svg">
<rect width="78" height="78" transform="translate(0.143066 0.841309)" fill="white"/>
<path d="M43.2645 67.4473H18.8005C13.3357 67.4473 8.89233 63.021 8.89233 57.5391V22.0263C8.89233 16.5445 13.3357 12.1182 18.8005 12.1182H53.4791C58.9439 12.1182 63.3873 16.5445 63.3873 22.0263V47.3415" stroke="black" stroke-width="1.34492" stroke-miterlimit="10"/>
<path d="M8.89233 24.8865H60.8166" stroke="black" stroke-width="1.34492" stroke-miterlimit="10"/>
<path d="M22.5117 6.15894V18.076" stroke="black" stroke-width="1.34492" stroke-linejoin="round"/>
<path d="M49.7507 6.15881V18.0759" stroke="black" stroke-width="1.34492" stroke-linejoin="round"/>
<path d="M49.7507 6.15881V18.0759" stroke="black" stroke-width="1.34492" stroke-linejoin="round"/>
<path d="M21.6608 41.4848C22.836 41.4848 23.7888 40.5321 23.7888 39.3568C23.7888 38.1815 22.836 37.2288 21.6608 37.2288C20.4855 37.2288 19.5327 38.1815 19.5327 39.3568C19.5327 40.5321 20.4855 41.4848 21.6608 41.4848Z" fill="black"/>
<path d="M36.1315 41.4848C37.3067 41.4848 38.2595 40.5321 38.2595 39.3568C38.2595 38.1815 37.3067 37.2288 36.1315 37.2288C34.9562 37.2288 34.0034 38.1815 34.0034 39.3568C34.0034 40.5321 34.9562 41.4848 36.1315 41.4848Z" fill="black"/>
<path d="M50.6022 41.4848C51.7775 41.4848 52.7302 40.5321 52.7302 39.3568C52.7302 38.1815 51.7775 37.2288 50.6022 37.2288C49.4269 37.2288 48.4741 38.1815 48.4741 39.3568C48.4741 40.5321 49.4269 41.4848 50.6022 41.4848Z" fill="black"/>
<path d="M21.6608 55.1045C22.836 55.1045 23.7888 54.1517 23.7888 52.9764C23.7888 51.8011 22.836 50.8484 21.6608 50.8484C20.4855 50.8484 19.5327 51.8011 19.5327 52.9764C19.5327 54.1517 20.4855 55.1045 21.6608 55.1045Z" fill="black"/>
<path d="M36.1315 55.1045C37.3067 55.1045 38.2595 54.1517 38.2595 52.9764C38.2595 51.8011 37.3067 50.8484 36.1315 50.8484C34.9562 50.8484 34.0034 51.8011 34.0034 52.9764C34.0034 54.1517 34.9562 55.1045 36.1315 55.1045Z" fill="black"/>
<path d="M58.0759 52.9766L67.1328 48.8227C68.4778 48.2098 69.8567 49.5888 69.2439 50.9337L65.0899 59.9907C64.9027 60.4163 64.9027 60.893 65.0899 61.3186L69.2439 70.3755C69.8567 71.7204 68.4778 73.0994 67.1328 72.4865L58.0759 68.3326C57.6503 68.1453 57.1736 68.1453 56.748 68.3326L47.691 72.4865C46.3461 73.0994 44.9671 71.7204 45.58 70.3755L49.734 61.3186C49.9212 60.893 49.9212 60.4163 49.734 59.9907L45.58 50.9337C44.9671 49.5888 46.3461 48.2098 47.691 48.8227L56.748 52.9766C57.1736 53.1639 57.6503 53.1639 58.0759 52.9766Z" fill="white" stroke="black" stroke-width="1.34492" stroke-miterlimit="10"/>
</svg>
