<svg width="20" height="20" viewBox="0 0 20 20" fill="none" xmlns="http://www.w3.org/2000/svg">
<path d="M14.1442 10.1923L10.1865 6.3635C9.70833 5.902 9.30608 5.38825 8.97975 4.82225C8.65342 4.25625 8.49025 3.63983 8.49025 2.973C8.49025 2.14717 8.77933 1.44525 9.3575 0.86725C9.9355 0.289083 10.6374 0 11.4632 0C12.0031 0 12.5015 0.130167 12.9585 0.3905C13.4157 0.650667 13.8109 0.982084 14.1442 1.38475C14.4776 0.982084 14.8728 0.650667 15.3298 0.3905C15.7868 0.130167 16.2852 0 16.825 0C17.6508 0 18.3527 0.289083 18.9307 0.86725C19.5089 1.44525 19.798 2.14717 19.798 2.973C19.798 3.63983 19.6374 4.25625 19.3162 4.82225C18.9951 5.38825 18.5954 5.902 18.1173 6.3635L14.1442 10.1923ZM14.1442 8.104L17.0037 5.33275C17.3396 5.00325 17.6392 4.64492 17.9027 4.25775C18.1662 3.87058 18.298 3.44233 18.298 2.973C18.298 2.5615 18.1553 2.21317 17.87 1.928C17.5848 1.64267 17.2365 1.5 16.825 1.5C16.5083 1.5 16.2186 1.58267 15.9557 1.748C15.6929 1.9135 15.4608 2.12317 15.2595 2.377L14.1442 3.7345L13.0287 2.377C12.8274 2.12317 12.5953 1.9135 12.3325 1.748C12.0698 1.58267 11.7801 1.5 11.4632 1.5C11.0517 1.5 10.7034 1.64267 10.4182 1.928C10.1329 2.21317 9.99025 2.5615 9.99025 2.973C9.99025 3.44233 10.122 3.87058 10.3855 4.25775C10.649 4.64492 10.9487 5.00325 11.2845 5.33275L14.1442 8.104ZM5 16.077L12.2575 18.1307L18.2268 16.2807C18.1756 16.0539 18.0698 15.8799 17.9095 15.7587C17.7492 15.6376 17.5677 15.577 17.3652 15.577H12.468C12.0317 15.577 11.6609 15.5603 11.3557 15.527C11.0506 15.4937 10.7371 15.4206 10.4152 15.3078L8.15775 14.5615L8.60175 13.0923L10.6268 13.7962C10.9294 13.8987 11.2788 13.9686 11.675 14.0057C12.0712 14.0429 12.6346 14.0667 13.3652 14.077C13.3652 13.8295 13.3095 13.616 13.198 13.4365C13.0865 13.257 12.9397 13.1358 12.7575 13.073L6.95575 10.9423C6.93642 10.9359 6.91875 10.9312 6.90275 10.928C6.88675 10.9247 6.86917 10.923 6.85 10.923H5V16.077ZM0 19V9.42325H6.8385C6.9435 9.42325 7.04983 9.43475 7.1575 9.45775C7.26533 9.48092 7.36533 9.50783 7.4575 9.5385L13.2845 11.6848C13.7383 11.8526 14.1152 12.1497 14.4152 12.576C14.7152 13.0023 14.8652 13.5027 14.8652 14.077H17.3652C18.0832 14.077 18.6682 14.3088 19.12 14.7723C19.572 15.2356 19.798 15.8372 19.798 16.577V17.3845L12.3075 19.7115L5 17.627V19H0ZM1.5 17.5H3.5V10.923H1.5V17.5Z" fill="black"/>
</svg>
