<?xml version="1.0" encoding="utf-8"?>
<!-- Generator: Adobe Illustrator 25.0.1, SVG Export Plug-In . SVG Version: 6.00 Build 0)  -->
<svg version="1.1" id="Ebene_1" xmlns="http://www.w3.org/2000/svg" xmlns:xlink="http://www.w3.org/1999/xlink" x="0px" y="0px"
	 viewBox="0 0 311.4 262.2" style="enable-background:new 0 0 311.4 262.2;" xml:space="preserve">
<path d="M126.5,44.5c-0.3-0.1-0.5-0.2-0.8-0.3c-0.3-3-0.3-5.4-0.3-5.7v-0.2c0-1.9,0.9-3.5,3.1-5c2.6-1.9,4.1-4.9,4.6-8.7
	c0.2-1.7,0.1-3.5-0.1-5.2L130.8,5c-0.1-1.3-1.2-2.3-2.5-2.3C126.5,3,126.7,5,126.7,5l1.3,14.9v0c0.1,0.7,0.2,2.5-0.5,3.4
	c-0.2,0.3-0.6,0.4-0.9,0.4c-1,0-1.5-0.1-1.8-0.4S124,21.7,124,20c0-6.4-0.1-15-0.1-15s0.1-2.3-1.5-2.3h-0.7c0,0-1.7-0.2-1.7,2.3
	l-0.2,15c0,1.8-0.2,2.9-0.7,3.3s-0.9,0.3-1.7,0.3c-0.4,0-0.7-0.1-1-0.4c-0.6-0.9-0.9-1.9-0.9-3L116.8,5c0,0,0.3-2-1.5-2.3
	c-1.3-0.1-2.4,1-2.5,2.3c-0.6,3.6-0.7,5-1.2,8c-0.3,2.3-0.6,4.5-1,6.9c-0.8,5.5,0.8,9.9,4.6,12.7l0,0c1.6,1.2,4.1,3,4.1,5.5v0.5
	c0,0,0,2.4-0.2,5.6c-1.3,0.3-2.6,0.8-3.6,1.7c-1.7,1.5-2.9,3.4-3.5,5.6c-1.3,5,1.5,11.1,6.3,13c0,1.9-0.2,3.8-0.5,5.7
	c-0.4,3.1-1.4,6.2-2.7,9c-0.5,1.3-1.5,2.4-2.7,3.2c-1.2,0.7-2.5,1-3.8,1c-2.1-0.1-4-1.2-5.2-2.9c-2-2.8-4.2-6.7-6.6-10.3
	c-2.5-4.4-6.4-7.8-11.2-9.5c-1.7-0.6-3.5-1-5.2-1.5c-1.7-0.5-3.3-1.5-4.6-2.8c-1.2-1.4-1.6-3.4-1.1-5.2c0.1-0.5,0.3-0.9,0.6-1.3
	c9.4-4.1,15.4-13.5,15.2-23.7c0-14.1-10.8-25.5-24.1-25.5S42.4,11.9,42.4,25.9c-0.1,10.2,5.8,19.5,15.2,23.7
	c0.2,0.4,0.4,0.9,0.6,1.4c0.6,1.8,0.1,3.8-1.1,5.2c-1.2,1.3-2.8,2.3-4.5,2.8c-1.7,0.6-3.5,1-5.2,1.5c-4.8,1.7-8.7,5.1-11.2,9.5
	c-2.4,3.7-4.6,7.6-6.6,10.3c-1.2,1.7-3.1,2.8-5.2,2.9c-1.4,0-2.7-0.3-3.9-1c-1.2-0.8-2.1-1.9-2.7-3.2c-1.4-2.8-2.3-5.9-2.8-9
	c-0.3-1.9-0.4-3.8-0.5-5.7c4.8-2,7.6-8.1,6.3-13c-0.6-2.2-1.8-4.1-3.5-5.6c-1.5-1.2-3.3-1.9-5.1-2v-6l5-7.3
	c1.8-3.1,2.4-6.8,1.4-10.2c-1.1-4.1-4.3-15.4-5.8-18C12.1,0.8,11.2,0,9.7,0C8,0,6.2,1.5,6.3,5.7l0.5,38.7l-0.3,0.1
	c-5.4,2.1-6.8,8.9-6.6,14c0.1,3.2,0.4,6.3,0.8,9.4c0.9,6.3,2.2,14.6,4.3,20.6c2.7,7.8,5.7,16.1,16.6,17.4c5,0.6,10.4-1.2,15-2.9
	c1.5-0.6,3-1.3,4.3-2.2c-4.5,36.5-19.8,125.3-22.4,140.5c-0.1,0.8-0.5,1.6-1.1,2.2c-3.1,2.8-9,6.9-9,11.2c0,5.2,2.8,7.4,6.8,7.4
	h12.9c6.2,0,10.5-6.2,10.7-10.6c0.1-4.1,0.6-8.1,1.6-12.1c1-3.5,14.3-56.4,15.3-60c0.7-2.9,1.6-5.8,2.7-8.6c1.5-3.4,4.5-4.4,8-4.4
	c3.5-0.1,6.5,1,8,4.4c1.1,2.8,2,5.7,2.7,8.6c1,3.5,14.3,56.4,15.3,60c0.9,4,1.5,8,1.6,12.1c0.2,4.4,4.5,10.6,10.8,10.6h12.9
	c4,0,6.8-2.3,6.8-7.4c0-4.3-5.8-8.3-9-11.2c-0.6-0.6-1-1.3-1.1-2.2c-2.6-15.3-17.9-104-22.3-140.5c1.3,0.9,2.8,1.7,4.3,2.2
	c4.6,1.7,10,3.4,15,2.9c10.9-1.3,13.9-9.6,16.6-17.4c2.1-6,3.4-14.3,4.3-20.6c0.4-3.1,0.7-6.3,0.8-9.4
	C133.3,53.4,131.9,46.6,126.5,44.5"/>
<path d="M284.6,235.5c-0.8-0.3-1.7-0.5-2.6-0.5c-2.2,0-4.1,1.1-5.2,3v-2.4h-5.2V259h5.2v-15.1c0.4-2.2,2.4-3.8,4.7-3.8
	c1.1,0,2.2,0.2,3.1,0.8V235.5z M265.4,235.6h-5.2V251c-0.5,2.2-2.5,3.8-4.8,3.8c-3,0-4.4-1.9-4.4-4.8v-14.4h-5.2v15.3
	c0,5.2,2.9,8.7,8.2,8.7c2.4,0,4.7-1,6.2-2.8v2.2h5.2L265.4,235.6z M230,252.7c0,4.6,2.9,6.9,7.1,6.9c1.4,0.1,2.7-0.2,3.9-0.9v-4.8
	c-0.9,0.6-1.9,0.9-3,0.9c-1.3,0.2-2.6-0.7-2.8-2.1c0-0.2,0-0.4,0-0.7V240h5.2v-4.4h-5.2v-6.3H230v6.3h-3.7v4.4h3.7V252.7z
	 M222.6,224.7h-5.2V259h5.2V224.7z M211,235.6h-5.2V251c-0.5,2.2-2.5,3.8-4.8,3.8c-3,0-4.4-1.9-4.4-4.8v-14.4h-5.2v15.3
	c0,5.2,2.9,8.7,8.2,8.7c2.4,0,4.7-1,6.2-2.8v2.2h5.2V235.6z M168.2,226.6h-5.4V259h5.4v-10.1l3.3-3.8l10.6,13.9h6.8l-13.5-17.7
	l13-14.8h-6.9l-13.4,15.5L168.2,226.6z"/>
<path d="M266.4,156.2c0,4.6,2.9,6.9,7.1,6.9c1.4,0.1,2.7-0.2,3.9-0.8v-4.8c-0.9,0.6-1.9,1-3,1c-1.3,0.2-2.6-0.8-2.8-2.1
	c0-0.2,0-0.4,0-0.7v-12.2h5.2V139h-5.2v-6.3h-5.2v6.3h-3.7v4.4h3.7L266.4,156.2z M241.4,155.7c0.7,4.6,4.4,7.3,9.9,7.3
	c5.2,0,9.1-2.9,9.1-7.5c0-3.4-2-5.7-6-6.7l-4.9-1.2c-1.7-0.4-2.4-1.1-2.4-2.2c0-1.9,1.9-2.7,3.7-2.7c2.4,0,3.8,1.1,4.2,2.6h5.1
	c-0.8-4.3-3.9-6.9-9.3-6.9c-5.1,0-8.8,3.1-8.8,7.3c0,3.9,2.5,5.6,5.8,6.4l4.8,1.2c1.9,0.5,2.7,1.2,2.7,2.4c0,1.9-1.6,2.8-4,2.8
	s-4-1-4.6-3L241.4,155.7z M217.4,162.5h5.2v-15.4c0.5-2.2,2.6-3.8,4.9-3.8c3,0,4.4,1.9,4.4,4.8v14.4h5.1v-15.3
	c0-5.2-2.9-8.7-8.2-8.7c-2.4,0-4.7,1-6.3,2.7V139h-5.2L217.4,162.5z M211,139h-5.2v15.4c-0.5,2.2-2.5,3.8-4.8,3.8
	c-3,0-4.4-1.9-4.4-4.8V139h-5.2v15.3c0,5.2,2.9,8.7,8.2,8.7c2.4,0,4.7-1,6.2-2.7v2.2h5.2V139z M168.2,130h-5.4v32.4h5.4v-10.1
	l3.3-3.8l10.6,13.9h6.9l-13.5-17.6l13-14.7h-6.9l-13.4,15.5L168.2,130z"/>
<path d="M224.8,80c-1.1-0.5-2.3-0.7-3.5-0.6c-4.4,0-7.6,2.8-7.6,7.8v3.6h-4v4.4h4v19.1h5.1V95.2h5.1v-4.4h-5.1v-3.3
	c0-2.3,1.3-3.6,3.4-3.6c0.9,0,1.8,0.3,2.6,0.7L224.8,80z M205.7,90.8h-5.2v15.4c-0.5,2.2-2.5,3.8-4.8,3.8c-3,0-4.3-1.9-4.3-4.8V90.8
	H186v15.3c0,5.2,2.9,8.7,8.2,8.7c2.4,0,4.6-1,6.2-2.7v2.2h5.2L205.7,90.8z M175.4,108c-0.6,1.5-2.7,2.4-4.8,2.4
	c-2.4,0-4.8-1-4.8-3.4s2.5-3.3,4.8-3.3c2.1,0,4.2,0.9,4.8,2.4V108z M180.4,114.2V98.9c0-5.3-3.5-8.6-9.3-8.6c-4.8,0-8.4,3-9.1,7h5
	c0.6-1.6,1.9-2.5,4-2.5c3,0,4.4,1.8,4.4,4.2v1.9c-1.6-0.9-3.5-1.4-5.4-1.4c-5.1,0-9.1,3.1-9.1,7.6c0,4.8,3.9,7.7,8.7,7.7
	c2.6,0,5-1,5.8-1.8v1.3L180.4,114.2z"/>
<path d="M311,42.4c-0.8-0.3-1.7-0.5-2.6-0.4c-2.1,0-4.1,1.1-5.2,3v-2.5H298V66h5.2V50.8c0.4-2.2,2.4-3.8,4.7-3.8
	c1.1,0,2.2,0.2,3.1,0.8V42.4z M283.4,46.4c3.2,0,4.8,2.3,4.9,5.2h-10.5C278.4,48.2,280.5,46.4,283.4,46.4 M288.4,58.7
	c-0.6,2.3-2.5,3.4-5,3.4c-3.4,0-5.7-2.5-5.9-6.6h15.9v-1.9c0-6.9-3.6-11.6-10.1-11.6c-6.3,0-10.9,5.3-10.9,12.3
	c0,7.2,4.5,12.2,11,12.2c5.6,0,9-3.2,9.8-7.8H288.4z M262.6,58.3c-1.1,1.7-3,2.8-5,2.8c-4,0-6.3-3.1-6.3-7.2s2.3-7.2,6.3-7.2
	c2,0,3.9,1.1,5,2.8V58.3z M262.6,64.4c0,4.4-1.8,6.8-5.7,6.8c-2.9,0-4.7-1.3-5.2-3.9h-5.1c0.6,5.1,4.4,8.2,10.3,8.2
	c6.2,0,11-3.5,11-11.5V42.5h-5.2v1.9c-1.5-1.6-3.7-2.5-5.9-2.4c-6.9,0-10.7,5.7-10.7,11.9s3.9,11.9,10.8,11.9
	c2.2,0.1,4.4-0.8,5.9-2.4L262.6,64.4z M221.9,66h5.2V50.5c0.6-2.2,2.6-3.8,4.9-3.8c3,0,4.4,1.9,4.4,4.8V66h5.2V50.7
	c0-5.2-2.9-8.7-8.2-8.7c-2.4,0-4.7,1-6.3,2.8v-2.2h-5.2L221.9,66z M215.8,42.5h-5.2V58c-0.5,2.2-2.5,3.8-4.8,3.8
	c-3,0-4.4-1.9-4.4-4.8V42.5h-5.2v15.3c0,5.2,2.9,8.7,8.2,8.7c2.4,0,4.6-1,6.2-2.8V66h5.2V42.5z M184.5,33.5v13.4h-16.2V33.5h-5.4V66
	h5.4V51.8h16.2V66h5.4V33.5H184.5z"/>
<path d="M176.4,196.1h-3c-3.2,0-7,0.7-7,4.8c0,2.8,2.2,5,5,5c0.1,0,0.2,0,0.3,0c2,0.1,3.9-1,4.6-2.8L176.4,196.1z M176.9,209.7
	c-1.6,0.8-3.4,1.2-5.1,1.1c-5.6,0-10.6-3.3-10.6-9.4c0-3.9,2.1-7.1,6.1-7.7c-3.2-0.9-5.5-3.9-5.4-7.2c0-5.6,4.7-8.5,10.1-8.5
	c4.6,0,8.7,2.1,10.1,6.8l-5.6,1.5c-0.6-2.1-2.5-3.5-4.7-3.5c-2.3-0.2-4.3,1.5-4.5,3.8c0,0.1,0,0.2,0,0.3c0,3.9,3.1,4.3,6.1,4.3h7
	l1.4,0.1v8.8c0,1.2,0.1,5.4,5.1,5.4c0.9,0,1.7-0.2,2.6-0.4v5.2c-0.6,0.2-1.3,0.3-1.9,0.3c-2.8,0-5.9-0.1-7-2.6L176.9,209.7z"/>
</svg>
