<svg width="100" height="100" viewBox="0 0 100 100" fill="none" xmlns="http://www.w3.org/2000/svg">
<g clip-path="url(#clip0_312_297)">
<path fill-rule="evenodd" clip-rule="evenodd" d="M68.6293 78.629C68.6293 72.7859 68.6112 67.0316 68.6565 61.2774C68.6565 60.8594 69.0552 60.388 69.3724 60.0411C74.3747 54.5982 77.1024 48.168 76.5587 40.6172C75.7431 29.3577 69.8074 21.7714 59.8934 17.6002C48.3845 12.762 34.8365 16.8354 27.6865 27.0098C18.1168 40.6261 23.6085 59.5609 39.0504 66.1245C40.2829 66.6492 41.5606 67.0405 43.0559 67.583V53.1574H56.2867V82.7024C55.2445 82.8358 54.1933 83.0314 53.133 83.0848C39.8841 83.8408 28.348 79.7319 18.8781 69.9221C4.17018 54.6782 4.06143 29.6601 18.6153 14.3006C35.344 -3.35342 62.5305 -3.86926 79.8573 13.1356C95.0455 28.0504 95.8611 52.8995 81.6879 68.8548C78.3168 72.6525 74.4382 75.7386 70.034 78.1399C69.7168 78.3089 69.3996 78.4779 69.0734 78.629C69.0009 78.6646 68.9012 78.629 68.6203 78.629M40.8447 38.4916C40.8447 43.561 44.7143 47.5099 49.6803 47.501C54.6192 47.501 58.5341 43.5077 58.525 38.4738C58.525 33.5378 54.6102 29.5534 49.7347 29.5178C44.7958 29.4823 40.8538 33.4666 40.8447 38.4916ZM0.5 91.4983V99.0935H2.11306V91.4983H0.5ZM10.994 95.6517H9.38092V98.1508C9.13624 98.2042 8.91875 98.2308 8.72844 98.2308C7.8766 98.2308 7.21506 97.964 6.74383 97.4393C6.2726 96.9146 6.03698 96.2031 6.03698 95.3137C6.03698 94.4955 6.23635 93.8018 6.63508 93.2237C7.03382 92.6456 7.68629 92.361 8.59251 92.361C8.87344 92.361 9.16342 92.3877 9.47154 92.4232C9.77965 92.4677 10.2781 92.61 10.9849 92.8412V91.605C10.1512 91.4093 9.30842 91.3115 8.46564 91.3115C7.45974 91.3115 6.67133 91.4805 6.08229 91.8273C5.49325 92.1742 5.05827 92.6456 4.76828 93.2504C4.47829 93.8551 4.33329 94.531 4.33329 95.287C4.33329 96.4432 4.65953 97.3948 5.32107 98.1508C5.98261 98.9068 7.03382 99.2803 8.48376 99.2803C8.83719 99.2803 9.17249 99.2625 9.4806 99.2269C9.79778 99.1914 10.2962 99.0846 10.9849 98.9068V95.6428L10.994 95.6517ZM19.2859 99.0935V95.3582L22.1314 99.0935H24.125L20.8899 94.8957L23.4816 91.4983H22.1586L19.2949 95.1803V91.4983H17.7453V99.0935H19.2949H19.2859ZM26.0372 96.1497C26.0372 97.0302 26.1731 97.6705 26.4359 98.0708C26.6987 98.471 27.0703 98.7734 27.5324 98.9779C27.9946 99.1825 28.5474 99.2803 29.1817 99.2803C29.8161 99.2803 30.3689 99.1736 30.7948 98.9512C31.2207 98.7289 31.547 98.4354 31.7735 98.053C32.0001 97.6705 32.1088 97.0391 32.1088 96.1586V91.4983H30.7132V96.2653C30.7132 97.0391 30.5773 97.5638 30.3054 97.8306C30.0336 98.1063 29.6711 98.2397 29.218 98.2397C28.7649 98.2397 28.3752 98.1063 28.0852 97.8306C27.7952 97.5549 27.6502 96.9946 27.6502 96.1586V91.4983H26.0372V96.1497ZM39.7935 99.0935V98.0174H36.3499V91.4983H34.7368V99.0935H39.7935ZM45.258 99.0935V92.5477H48.031V91.4983H40.881V92.5477H43.654V99.0935H45.2671H45.258ZM49.8163 96.1497C49.8163 97.0302 49.9522 97.6705 50.215 98.0708C50.4778 98.471 50.8494 98.7734 51.3025 98.9779C51.7646 99.1825 52.3174 99.2803 52.9518 99.2803C53.5861 99.2803 54.1389 99.1736 54.5648 98.9512C54.9908 98.7289 55.317 98.4354 55.5345 98.053C55.761 97.6705 55.8698 97.0391 55.8698 96.1586V91.4983H54.4652V96.2653C54.4652 97.0391 54.3292 97.5638 54.0574 97.8306C53.7855 98.1063 53.423 98.2397 52.9699 98.2397C52.5168 98.2397 52.1271 98.1063 51.8371 97.8306C51.5471 97.5549 51.4021 96.9946 51.4021 96.1586V91.4983H49.7891V96.1497H49.8163ZM60.0384 99.0935V95.9896H60.9265L62.8477 99.0935H64.8141L62.2767 95.5449C62.757 95.3315 63.1286 95.038 63.3823 94.6378C63.6451 94.2464 63.772 93.8195 63.772 93.3749C63.772 93.0013 63.6814 92.6722 63.5092 92.3699C63.328 92.0764 63.0833 91.854 62.7752 91.7117C62.467 91.5694 62.0139 91.4894 61.4158 91.4894H58.5159V99.0846H60.0293L60.0384 99.0935ZM60.0384 92.5477H60.6002C61.2346 92.5477 61.6515 92.6367 61.8599 92.8234C62.0683 93.0013 62.168 93.2504 62.168 93.5616C62.168 93.9174 62.0411 94.2375 61.7874 94.531C61.5336 94.8156 61.0715 94.9579 60.4099 94.9579H60.0384V92.5566V92.5477ZM73.4594 99.0935L74.71 93.8818L75.9062 99.0935H77.4468L79.4767 91.4983H78.3621L76.8759 97.0213L75.6072 91.4983H74.266L72.9338 97.0569L71.5201 91.4983H69.9977L71.9279 99.0935H73.4594ZM81.2892 91.4983V99.0935H82.9022V91.4983H81.2892ZM90.7954 99.0935V98.0174H87.2067V95.705H89.9707V94.6556H87.2067V92.5388H90.5507V91.4894H85.5937V99.0846H90.7954V99.0935ZM94.0759 99.0935V93.9085L97.6282 99.0935H99.0691V91.4983H97.7732V96.6833L94.1937 91.4983H92.7709V99.0935H94.0668H94.0759Z" fill="black"/>
</g>
<defs>
<clipPath id="clip0_312_297">
<rect width="98.5782" height="98.5782" fill="white" transform="translate(0.5 0.710938)"/>
</clipPath>
</defs>
</svg>
