<svg width="78" height="79" viewBox="0 0 78 79" fill="none" xmlns="http://www.w3.org/2000/svg">
<rect width="78" height="78" transform="translate(0 0.841309)" fill="white"/>
<path d="M53.3531 39.8409C53.3531 47.7616 46.9207 54.1939 39.0001 54.1939C31.0794 54.1939 24.647 47.7616 24.647 39.8409C24.647 31.9202 31.0794 25.4878 39.0001 25.4878C46.9207 25.4878 53.3531 31.9202 53.3531 39.8409Z" stroke="black" stroke-width="1.51085"/>
<path d="M53.9852 24.1752C55.2887 24.1752 56.3314 23.1324 56.3314 21.8289C56.3314 20.5254 55.2887 19.4827 53.9852 19.4827C52.6817 19.4827 51.6389 20.5254 51.6389 21.8289C51.6389 23.1324 52.6817 24.1752 53.9852 24.1752Z" fill="black"/>
<rect x="6.5169" y="7.35808" width="64.9664" height="64.9664" rx="16.6193" stroke="black" stroke-width="1.51085"/>
</svg>
