<?xml version="1.0" encoding="utf-8"?>
<!-- Generator: Adobe Illustrator 25.0.1, SVG Export Plug-In . SVG Version: 6.00 Build 0)  -->
<svg version="1.1" baseProfile="tiny" id="Layer_1" xmlns="http://www.w3.org/2000/svg" xmlns:xlink="http://www.w3.org/1999/xlink"
	 x="0px" y="0px" viewBox="0 0 566.9 566.9" overflow="visible" xml:space="preserve">
<path d="M566.9,283.5c0,156.6-126.9,283.5-283.5,283.5C126.9,566.9,0,440,0,283.5C0,126.9,126.9,0,283.5,0
	C440,0,566.9,126.9,566.9,283.5"/>
<path fill="#FFFFFF" d="M137.9,120v46c1.7,0,3.2,0,4.8-1.2c1.2-1,2.2-2.2,4-4.4l13.7-17.5h10.3l-17.1,22c-1.6,2-2.2,2.9-3.4,4.1
	l22.2,31.2h-10.2l-19-26.8c-1.7,0.5-3.4,0.6-5.4,0.6v26.2h-8.4V120H137.9z"/>
<path fill="#FFFFFF" d="M207.4,143.3l-2.5,7.6c-1.7-0.6-3.6-1-5.6-1c-4.3,0-8.4,1.6-10.7,4.3c-2.9,3.4-2.9,8.4-2.9,16v29.9h-8.4
	v-29.9c0-9.7,0-15.4,4.8-21c4.7-5.5,11.6-7.2,17.2-7.2C202.3,142,205,142.5,207.4,143.3"/>
<path fill="#FFFFFF" d="M231.6,192.9c5.2,0,10.3-1.2,14.7-3.5l3.5,7.2c-5.6,2.9-11.9,4.2-18.1,4.2c-8.3,0-14.9-3-18.7-8.2
	c-4.6-6.2-4.6-13.5-4.6-21.3c0-9.4,0-14.9,4.3-20.9c3.8-5.4,11-8.5,19.6-8.5c6,0,10.8,1.6,14.4,4.4c3.6,3,5.9,7.4,6,12.1
	c0,5.3-2.6,9.4-6,11.8c-5,3.6-10.2,3.6-18.7,3.6h-11c0,3.1,0,10.2,2.8,13.9C222,191.1,225.8,192.9,231.6,192.9 M241.1,152.4
	c-2-1.7-5.2-2.5-8.9-2.5c-5.4,0-9.7,1.6-12.4,4.7c-3,3.5-3,9.5-3,11.9h11c7.6,0,10.9,0,13.5-1.9c1.6-1.2,2.9-3.2,2.9-6
	C244.1,156.3,242.9,153.9,241.1,152.4"/>
<path fill="#FFFFFF" d="M292.6,194.6c-3.6,4.2-9.2,6.2-16.5,6.2c-5.8,0-10.7-1.2-14.5-4c-4-2.8-7.2-7.6-7.2-13.8
	c0-6.4,3.2-11,7.1-13.8c5.6-4.1,12.4-4.1,17.1-4.1h9.9c0-3.7,0-8.5-2.9-11.8c-2-2.3-5.2-3.5-9.7-3.5c-5.3,0-10.6,1.2-15.6,3.1
	l-2.6-7.6c5.6-2,11.8-3.5,18.3-3.5c7.2,0,12.6,2.3,16.2,6.4c4.8,5.4,4.8,12.5,4.8,18.9v8.9C296.8,184.1,296.8,189.7,292.6,194.6
	 M288.4,172.6h-9.9c-4.1,0-8.4,0-11.8,2.4c-2.2,1.6-4,4.3-4,8c0,3.4,1.7,6,3.8,7.6c2.3,1.6,5.6,2.3,9.5,2.3c4.4,0,7.9-1,10-3.4
	c2.3-2.6,2.3-6.4,2.3-13.5V172.6z"/>
<path fill="#FFFFFF" d="M314.1,190.5c1.2,1.4,3,2.4,5.6,2.4c2.3,0,5-0.8,7.8-2.3l3.6,7.1c-3.2,1.7-7.1,3.1-11.4,3.1
	c-5.3,0-9.7-2.2-12.4-5.5c-3.4-4.2-3.4-8.8-3.4-15.6v-50.6h8.4v13.6h14.4v7.4h-14.4v29.5C312.4,186.2,312.4,188.3,314.1,190.5"/>
<path fill="#FFFFFF" d="M346.2,127.8c0,3.4-2.4,5.6-5.6,5.6c-3.2,0-5.6-2.3-5.6-5.6c0-3.4,2.4-5.6,5.6-5.6
	C343.8,122.2,346.2,124.5,346.2,127.8 M336.3,142.7h8.4v57.4h-8.4V142.7z"/>
<path fill="#FFFFFF" d="M367.4,185.9c0.7,3.1,1.2,4.9,1.9,5.8c0.6,0.7,1.6,1.2,2.5,1.2c1,0,1.9-0.5,2.5-1.2c0.7-0.8,1.2-2.6,1.9-5.8
	l10.5-43.2h8.6l-10.7,44.1c-1.3,5.5-1.9,8.6-5.3,11.4c-1.9,1.6-4.6,2.6-7.6,2.6c-3,0-5.6-1.1-7.6-2.6c-3.4-2.8-4-5.9-5.3-11.4
	l-10.7-44.1h8.6L367.4,185.9z"/>
<path fill="#FFFFFF" d="M418.7,192.9c5.2,0,10.3-1.2,14.7-3.5l3.5,7.2c-5.6,2.9-11.9,4.2-18.1,4.2c-8.3,0-14.9-3-18.7-8.2
	c-4.6-6.2-4.6-13.5-4.6-21.3c0-9.4,0-14.9,4.3-20.9c3.8-5.4,11-8.5,19.6-8.5c6,0,10.8,1.6,14.4,4.4c3.6,3,5.9,7.4,6,12.1
	c0,5.3-2.6,9.4-6,11.8c-5,3.6-10.2,3.6-18.7,3.6h-11c0,3.1,0,10.2,2.8,13.9C409.1,191.1,412.9,192.9,418.7,192.9 M428.2,152.4
	c-2-1.7-5.2-2.5-8.9-2.5c-5.4,0-9.7,1.6-12.4,4.7c-3,3.5-3,9.5-3,11.9h11c7.6,0,10.9,0,13.5-1.9c1.6-1.2,2.9-3.2,2.9-6
	C431.2,156.3,430,153.9,428.2,152.4"/>
<path fill="#FFFFFF" d="M158.4,226.1l-2.5,7.6c-1.7-0.6-3.6-1-5.6-1c-4.3,0-8.4,1.6-10.7,4.3c-2.9,3.4-2.9,8.4-2.9,16V283h-8.4
	v-29.9c0-9.7,0-15.4,4.8-21c4.7-5.5,11.6-7.2,17.2-7.2C153.3,224.8,156,225.3,158.4,226.1"/>
<path fill="#FFFFFF" d="M196.3,277.4c-3.6,4.2-9.2,6.2-16.5,6.2c-5.8,0-10.7-1.2-14.5-4c-4-2.8-7.2-7.6-7.2-13.8
	c0-6.4,3.2-11,7.1-13.8c5.6-4.1,12.4-4.1,17.1-4.1h9.8c0-3.7,0-8.5-2.9-11.8c-2-2.3-5.2-3.5-9.7-3.5c-5.3,0-10.6,1.2-15.6,3.1
	l-2.6-7.6c5.6-2,11.8-3.5,18.3-3.5c7.2,0,12.6,2.3,16.2,6.4c4.8,5.4,4.8,12.5,4.8,18.9v8.9C200.5,267,200.5,272.5,196.3,277.4
	 M174.9,211.3c0,3.4-2.3,5.6-5.6,5.6c-3.4,0-5.6-2.3-5.6-5.6c0-3.4,2.3-5.6,5.6-5.6C172.6,205.6,174.9,207.9,174.9,211.3
	 M192.1,255.5h-9.8c-4.1,0-8.4,0-11.8,2.4c-2.2,1.6-4,4.3-4,8c0,3.4,1.7,6,3.8,7.6c2.3,1.6,5.6,2.3,9.5,2.3c4.4,0,7.9-1,10-3.4
	c2.3-2.6,2.3-6.4,2.3-13.5V255.5z M196.5,211.3c0,3.4-2.3,5.6-5.6,5.6c-3.4,0-5.6-2.3-5.6-5.6c0-3.4,2.3-5.6,5.6-5.6
	C194.2,205.6,196.5,207.9,196.5,211.3"/>
<path fill="#FFFFFF" d="M215.5,225.5v30.7c0,7.4,0,12.5,3.5,16c2,2,5.2,3.5,9.1,3.5s7.1-1.4,9.1-3.5c3.5-3.5,3.5-8.5,3.5-16v-30.7
	h8.4v30.7c0,8.4,0,15.4-5.6,21.3c-2.9,3-8,6.1-15.4,6.1s-12.5-3.1-15.4-6.1c-5.6-5.9-5.6-12.9-5.6-21.3v-30.7H215.5z"/>
<path fill="#FFFFFF" d="M291.7,233.2c3.2-5.4,8.8-8.4,15.6-8.4c5.6,0,10.6,2,13.8,5.2c6,5.8,6,13.2,6,22.2V283h-8.4v-30.7
	c0-7.9,0-13.3-3.6-16.7c-1.8-1.7-4.6-2.8-7.8-2.8c-3.2,0-6,1.1-7.8,2.8c-3.6,3.4-3.6,8.8-3.6,16.7V283h-8.4v-30.7
	c0-7.9,0-13.3-3.6-16.7c-1.8-1.7-4.6-2.8-7.8-2.8c-3.2,0-6,1.1-7.8,2.8c-3.6,3.4-3.6,8.8-3.6,16.7V283h-8.4v-30.7c0-9,0-16.5,6-22.2
	c3.2-3.1,8.2-5.2,13.8-5.2C283,224.8,288.5,227.8,291.7,233.2"/>
<path fill="#FFFFFF" d="M356.5,275.7c5.2,0,10.3-1.2,14.7-3.5l3.5,7.2c-5.6,2.9-11.9,4.2-18.1,4.2c-8.3,0-14.9-3-18.7-8.2
	c-4.6-6.2-4.6-13.5-4.6-21.3c0-9.4,0-14.9,4.3-20.9c3.8-5.4,11-8.5,19.6-8.5c6,0,10.8,1.6,14.4,4.4c3.6,3,5.9,7.4,6,12.1
	c0,5.3-2.6,9.4-6,11.8c-5,3.6-10.2,3.6-18.7,3.6h-11c0,3.1,0,10.2,2.8,13.9C346.9,273.9,350.7,275.7,356.5,275.7 M366,235.3
	c-2-1.7-5.2-2.5-8.9-2.5c-5.4,0-9.7,1.6-12.4,4.7c-3,3.5-3,9.5-3,11.9h11c7.6,0,10.9,0,13.5-1.9c1.6-1.2,2.9-3.2,2.9-6
	C369,239.1,367.8,236.7,366,235.3"/>
<path fill="#FFFFFF" d="M134.3,361.3c-6-5.8-6-13.2-6-22.2v-30.7h8.4v30.7c0,7.9,0,13.3,3.6,16.7c1.8,1.7,4.6,2.8,7.8,2.8
	s6-1.1,7.8-2.8c3.6-3.4,3.6-8.8,3.6-16.7v-30.7h8.4v30.7c0,7.9,0,13.3,3.6,16.7c1.8,1.7,4.6,2.8,7.8,2.8c3.2,0,6-1.1,7.8-2.8
	c3.6-3.4,3.6-8.8,3.6-16.7v-30.7h8.4v30.7c0,9,0,16.5-6,22.2c-3.2,3.1-8.2,5.2-13.8,5.2c-6.8,0-12.4-3-15.6-8.4
	c-3.2,5.4-8.8,8.4-15.6,8.4C142.5,366.5,137.5,364.5,134.3,361.3"/>
<path fill="#FFFFFF" d="M217.4,293.5c0,3.4-2.4,5.6-5.6,5.6c-3.2,0-5.6-2.3-5.6-5.6c0-3.4,2.4-5.6,5.6-5.6
	C215,287.8,217.4,290.1,217.4,293.5 M207.6,308.4h8.4v57.4h-8.4V308.4z"/>
<path fill="#FFFFFF" d="M246.5,358.6c5.2,0,10.3-1.2,14.7-3.5l3.5,7.2c-5.6,2.9-11.9,4.2-18.1,4.2c-8.3,0-14.9-3-18.7-8.2
	c-4.6-6.2-4.6-13.5-4.6-21.3c0-9.4,0-14.9,4.3-20.9c3.8-5.4,11-8.5,19.6-8.5c6,0,10.8,1.6,14.4,4.4c3.6,3,5.9,7.4,6,12.1
	c0,5.3-2.6,9.4-6,11.8c-5,3.6-10.2,3.6-18.7,3.6h-11c0,3.1,0,10.2,2.8,13.9C236.9,356.8,240.7,358.6,246.5,358.6 M256,318.1
	c-2-1.7-5.2-2.5-8.9-2.5c-5.4,0-9.7,1.6-12.4,4.7c-3,3.5-3,9.5-3,11.9h11c7.6,0,10.9,0,13.5-1.9c1.6-1.2,2.9-3.2,2.9-6
	C259,322,257.8,319.6,256,318.1"/>
<path fill="#FFFFFF" d="M309.3,313.8c5.6,5.9,5.6,12.9,5.6,21.3v30.7h-8.4V335c0-7.4,0-12.5-3.5-16c-2-2-5.2-3.5-9.1-3.5
	c-4,0-7.1,1.4-9.1,3.5c-3.5,3.5-3.5,8.5-3.5,16v30.7h-8.4V335c0-8.4,0-15.4,5.6-21.3c2.9-3,8-6.1,15.4-6.1
	C301.2,307.7,306.4,310.8,309.3,313.8"/>
</svg>
