<svg width="79" height="79" viewBox="0 0 79 79" fill="none" xmlns="http://www.w3.org/2000/svg">
<rect width="78" height="78" transform="translate(0.428711 0.841309)" fill="white"/>
<circle cx="39.4288" cy="39.8413" r="32.4832" stroke="black" stroke-width="1.51085"/>
<path d="M41.5986 55.9675C41.7214 55.8037 41.8442 55.6604 41.9875 55.4967C45.7339 50.8086 52.2643 41.7601 52.2643 35.6595C52.2643 28.5763 46.5118 22.8442 39.4286 22.8442C32.3453 22.8442 26.5928 28.5763 26.5928 35.6595C26.5928 44.5033 39.4286 58.5469 39.4286 58.5469" stroke="black" stroke-width="1.51085" stroke-linecap="square"/>
<path d="M39.4286 41.7196C42.8269 41.7196 45.5702 38.9764 45.5702 35.578C45.5702 32.1797 42.8269 29.4365 39.4286 29.4365C36.0303 29.4365 33.2871 32.1797 33.2871 35.578C33.2871 38.9764 36.0303 41.7196 39.4286 41.7196Z" stroke="black" stroke-width="1.51085"/>
</svg>
