<svg xmlns="http://www.w3.org/2000/svg" viewBox="0 0 444.1 130.4"><g id="Logo"><path d="M44.3,46.8V5.6H0A272.3,272.3,0,0,0,3.1,46.8Z"/><path d="M44.3,59.8H5.5c7.4,35.2,21.8,61.5,38.8,67Z"/><path d="M57.3,46.8V5.6h44.2a272.3,272.3,0,0,1-3.1,41.2Z"/><path d="M57.3,59.8H96.1c-7.5,35.2-21.8,61.5-38.8,67Z"/><path d="M150.1,59.3a26.7,26.7,0,0,1-7.5-1.1,25.6,25.6,0,0,1-7.1-3.4l1.4-9h.4a18.8,18.8,0,0,0,6.7,3.5,20.2,20.2,0,0,0,6.1,1.1c5.4,0,8.1-2,8.1-6.1a6.1,6.1,0,0,0-1.2-3.7,9.5,9.5,0,0,0-4.1-3.3l-6.5-3.7a23.6,23.6,0,0,1-7.9-6.6,14.1,14.1,0,0,1-2.3-8c0-4.6,1.5-8.1,4.5-10.7s7.1-4,12.2-4a24.9,24.9,0,0,1,12.8,3.5l-1.4,8.6H164a16,16,0,0,0-5.3-2.3,22.9,22.9,0,0,0-5.6-.8c-4.7,0-7.1,1.8-7.1,5.4a5.5,5.5,0,0,0,1.2,3.5,17.4,17.4,0,0,0,4.8,3.6l5.8,3.2a21.6,21.6,0,0,1,7.8,6.4,14.9,14.9,0,0,1,2.4,8.5c0,4.8-1.6,8.6-4.8,11.3S155.5,59.3,150.1,59.3Z"/><path d="M182.7,58a23.7,23.7,0,0,1-3.8-8,35.6,35.6,0,0,1-1.3-10.2V31.1h-6.2V22.9h6.2V12.4h9.6V22.9h8.3l-1.4,8.2h-6.9V39a29.8,29.8,0,0,0,1.7,10.4,34.6,34.6,0,0,0,4.5,8.2V58Z"/><path d="M209.8,58.6a11.7,11.7,0,0,1-8.1-2.7,9.8,9.8,0,0,1-3-7.6,9.4,9.4,0,0,1,3.5-7.9c2.3-1.9,5.5-3,9.4-3.4l9.8-1h0a5.4,5.4,0,0,0-1.6-4.3q-1.5-1.5-5.7-1.5a28,28,0,0,0-6.4.8,21.1,21.1,0,0,0-5.2,1.7H202l1.4-8.3a29.3,29.3,0,0,1,5.6-1.6,38.4,38.4,0,0,1,6.9-.7c5.3,0,9.1,1.3,11.6,3.7s3.7,6.1,3.7,10.8V47.7a32.7,32.7,0,0,0,.4,5.4,14,14,0,0,0,1.3,4.5V58h-9.2a12,12,0,0,1-.7-2.6,16,16,0,0,1-.5-2.9h-.4a10.9,10.9,0,0,1-4.6,4.4A17.1,17.1,0,0,1,209.8,58.6Zm-1.2-11a3.7,3.7,0,0,0,1,2.5,4.5,4.5,0,0,0,3.3,1.1,8.9,8.9,0,0,0,6.1-2.1,7.3,7.3,0,0,0,2.4-5.7v-.8l-7.4.8a7.9,7.9,0,0,0-4.1,1.3A3.2,3.2,0,0,0,208.6,47.6Z"/><path d="M265.8,58V52.7h-.5a10.8,10.8,0,0,1-4.5,4.5,15.3,15.3,0,0,1-15.1-.6,15.3,15.3,0,0,1-5.5-6.5,22.7,22.7,0,0,1-1.9-9.7,21.9,21.9,0,0,1,1.9-9.6,15.8,15.8,0,0,1,5.4-6.5,15.2,15.2,0,0,1,8.3-2.3,14.4,14.4,0,0,1,6.5,1.5,10.3,10.3,0,0,1,4.4,3.8h.5V5.6h9.8V58Zm-8.9-7.6a8.1,8.1,0,0,0,6.4-2.7,10.9,10.9,0,0,0,2.5-7.3,10.5,10.5,0,0,0-2.5-7.2,8.1,8.1,0,0,0-6.4-2.7,8.4,8.4,0,0,0-6.4,2.6,11.3,11.3,0,0,0-2.3,7.4,10.9,10.9,0,0,0,2.3,7.2A8.1,8.1,0,0,0,256.9,50.4Z"/><path d="M291.6,58a25.9,25.9,0,0,1-3.9-8,39.7,39.7,0,0,1-1.2-10.2V31.1h-6.2V22.9h6.2V12.4h9.6V22.9h8.3L303,31.1h-6.9V39a29.8,29.8,0,0,0,1.7,10.4,31.4,31.4,0,0,0,4.5,8.2V58Z"/><path d="M158.8,124.9H146.9c-1.1-2.6-2.4-5.9-3.7-9.7s-2.7-8.1-4-12.8-2.3-9.6-3.3-14.8-1.5-10.1-1.9-15.2h10.6c.4,4.7,1,9.5,1.9,14.6s1.8,9.9,3,14.7,2.4,9.2,3.7,13.2h.4l10.7-35.5h7.8l10.6,35.5h.5q2-6,3.6-13.2c1.1-4.8,2.1-9.7,2.9-14.7a132,132,0,0,0,1.8-14.6H202a131.5,131.5,0,0,1-1.9,15.2c-1,5.2-2,10.1-3.3,14.8s-2.6,9-3.9,12.8-2.6,7.1-3.8,9.7H177.2l-8.9-29.5h-.5Z"/><path d="M214.2,84.1a6.1,6.1,0,0,1-4.5-1.7,5.9,5.9,0,0,1-1.8-4.4,5.7,5.7,0,0,1,1.8-4.3,6.1,6.1,0,0,1,4.5-1.7,6.5,6.5,0,0,1,4.6,1.7,6,6,0,0,1,1.7,4.3,6.2,6.2,0,0,1-1.7,4.4A6.5,6.5,0,0,1,214.2,84.1Zm-4.9,40.8V89.7h9.8v35.2Z"/><path d="M244.7,125.7a20.7,20.7,0,0,1-9.9-2.2,15.2,15.2,0,0,1-6.4-6.4,19.5,19.5,0,0,1-2.2-9.6,19.7,19.7,0,0,1,2.3-10,16,16,0,0,1,6.5-6.4,19.2,19.2,0,0,1,9.4-2.2c5.1,0,9.2,1.6,12.1,4.7s4.3,7.6,4.3,13.2v2.1l-24.2,2.8a7,7,0,0,0,3.5,4.5,12.8,12.8,0,0,0,6.1,1.3,27.2,27.2,0,0,0,6.9-.9,17.6,17.6,0,0,0,5.2-2h.5l-1.4,8.4a26.5,26.5,0,0,1-5.5,1.9A33.8,33.8,0,0,1,244.7,125.7Zm-.6-29a7.8,7.8,0,0,0-5.4,2,9.3,9.3,0,0,0-2.6,6l15-1.7c-.4-2.2-1.1-3.8-2.3-4.8A7.3,7.3,0,0,0,244.1,96.7Z"/><path d="M267.6,124.9V89.7h8.9v6h.4a10.9,10.9,0,0,1,4.3-5,13.9,13.9,0,0,1,7.1-1.8c4.1,0,7.4,1.3,9.7,4.1s3.6,6.5,3.6,11.3v20.6h-9.8V105.6c0-5.5-2.3-8.3-6.8-8.3a6.7,6.7,0,0,0-5.5,2.5,9.6,9.6,0,0,0-2.1,6.5v18.6Z"/><rect x="336.8" y="5.6" width="1.6" height="121.21"/></g><g id="Magistratsbezeichnung"><path d="M371.7,124.9V104.8h2.5v9.8h.2l9.4-9.8H387v.2l-8,8a45.9,45.9,0,0,1,3.6,4.1,27.1,27.1,0,0,1,2.8,4.1,34.9,34.9,0,0,1,2,3.7h-2.9a32.3,32.3,0,0,0-2.8-4.8,39.1,39.1,0,0,0-4.4-5.5l-3.1,3.1v7.2Z"/><path d="M395,125.3a5.4,5.4,0,0,1-4.4-1.8,6.5,6.5,0,0,1-1.6-4.8v-7.1h2.4v7.3a4.6,4.6,0,0,0,.9,3.1,3.5,3.5,0,0,0,2.7,1.1,3.3,3.3,0,0,0,2.6-1.1,4.6,4.6,0,0,0,.9-3.1v-7.3h2.4v7.1a6.9,6.9,0,0,1-1.5,4.8A5.4,5.4,0,0,1,395,125.3Z"/><path d="M404.7,124.9V104h2.4v20.9Z"/><path d="M417.9,125h-1.4a4.2,4.2,0,0,1-3.3-1.4,5.6,5.6,0,0,1-1.2-3.8v-6.1h-2.7v-2.1H412v-4.1h2.4v4.1h3.8l-.3,2.1h-3.5v5.8a3.7,3.7,0,0,0,.8,2.6,2.6,2.6,0,0,0,2.3.9h.7Z"/><path d="M426.7,125.3a5.4,5.4,0,0,1-4.4-1.8,6.9,6.9,0,0,1-1.6-4.8v-7.1h2.4v7.3a4.6,4.6,0,0,0,1,3.1,3.6,3.6,0,0,0,5.2,0,4.1,4.1,0,0,0,1-3.1v-7.3h2.4v7.1a6.5,6.5,0,0,1-1.6,4.8A5.4,5.4,0,0,1,426.7,125.3Z"/><path d="M436.4,124.9V111.6h2.2v2.6h.2a4.4,4.4,0,0,1,1.5-2.2,3.6,3.6,0,0,1,2.4-.7,3.2,3.2,0,0,1,1.4.3V114H444a4.5,4.5,0,0,0-1.6-.3,3.1,3.1,0,0,0-2.6,1.2,5.4,5.4,0,0,0-1,3.5v6.5Z"/></g></svg>