<svg width="139" height="80" viewBox="0 0 139 80" fill="none" xmlns="http://www.w3.org/2000/svg">
<rect width="138" height="80" transform="translate(0.5)" fill="black"/>
<path d="M3.67894 40.1466C3.98169 42.0326 5.06026 43.3471 6.72542 44.3186C8.39058 45.2902 9.10963 44.9473 9.10963 43.7281C9.10963 42.3755 8.4095 41.3658 5.93069 39.2703C1.99486 35.9365 1.0109 33.7076 1.0109 31.4406C1.0109 28.5068 2.8842 27.6495 6.30913 29.6308C10.1503 31.8597 11.6641 35.1364 11.8723 37.7082L8.73118 35.8603C8.59873 34.7553 8.0689 33.3456 6.23344 32.2788C4.94673 31.5549 4.18984 31.6882 4.18984 32.9075C4.18984 34.1267 4.81427 34.8887 7.12279 36.8699C11.3425 40.4514 12.2507 42.7946 12.2507 45.1568C12.2507 48.224 10.245 49.1193 6.44159 46.8904C2.63821 44.6615 0.840601 41.5373 0.5 38.2987L3.67894 40.1466ZM24.5313 49.9766L17.6057 45.976V50.2243L24.8719 54.4344V57.3872L14.5592 51.4054V34.6982L24.7962 40.661V43.6138L17.5679 39.4417V43.0232L24.4934 47.0238L24.5313 49.9766ZM39.7826 51.8054L39.688 51.7292C38.9879 54.7201 37.5876 59.4637 36.1874 63.8834L33.5193 62.3593C32.4786 57.1776 30.9648 49.9575 30.3404 46.2808L30.2458 46.2046C30.3782 48.224 30.4161 51.7102 30.4161 54.5677V60.5496L27.5777 58.8731V42.1659L32.2515 44.8901C33.3869 49.9004 34.6357 56.1108 35.0899 58.8541H35.1277C35.4683 56.8728 37.0578 51.9197 38.2688 48.3764L42.7723 50.9863V67.6935L39.7637 65.9599C39.7637 65.9599 39.7258 53.6533 39.7826 51.8054ZM59.3293 46.3761L59.2347 46.4523C58.5346 50.2433 57.1343 56.6633 55.7341 62.6832L53.066 64.2072C52.0253 60.2448 50.5115 54.7773 49.8871 51.8054L49.7925 51.8816C49.9249 53.7676 49.9628 57.1776 49.9628 60.0352V66.017L47.1244 67.6935V50.9863L51.7982 48.2621C52.9336 51.9578 54.1824 56.7204 54.6366 58.9493H54.6744C55.015 56.549 56.6045 49.748 57.8155 44.7758L62.319 42.1659V58.8731L59.2914 60.6258C59.2914 60.6258 59.2536 48.3383 59.3293 46.3761ZM75.6592 43.9186L68.7337 47.9192V52.1674L75.9998 47.9573V50.9101L65.6872 56.8919V40.1847L75.9241 34.2219V37.1938L68.6958 41.3658V44.9473L75.6214 40.9467V43.8995H75.6592V43.9186ZM78.5921 32.6979L81.7143 30.8881V44.6425L88.5642 40.68V43.6328L78.5921 49.4051V32.6979ZM91.043 42.1659L87.3721 27.6115L90.6835 25.6683C92.0269 32.5645 92.6514 35.5936 92.8217 37.3271H92.8595C93.4083 33.9552 94.7896 27.3066 95.66 22.8108L98.4605 21.1724C99.1796 23.9538 100.674 29.5736 101.129 32.355H101.166C101.658 28.3925 103.078 21.1153 103.588 18.2196L106.635 16.4479L102.718 35.4221L99.4634 37.3081C98.7065 34.0314 97.4198 29.4022 96.9089 26.8304H96.871C96.3601 30.107 95.0356 36.4699 94.2787 40.299L91.043 42.1659ZM118.405 19.0388L111.479 23.0394V27.2876L118.745 23.0775V26.0303L108.433 32.0121V15.3049L118.669 9.34214V12.2949L111.441 16.5051V20.0866L118.367 16.086V19.0197H118.405V19.0388ZM124.46 6.02737V22.7346L121.338 24.5443V7.83716L124.46 6.02737ZM129.928 14.6572C130.269 16.1622 131.31 16.2574 132.975 15.324C134.64 14.3905 135.359 13.1713 135.359 11.952C135.359 10.5995 134.659 10.428 132.18 11.19C128.244 12.4092 127.26 11.3234 127.26 9.07543C127.26 6.14167 129.171 3.09361 132.558 1.09332C136.4 -1.13557 137.913 0.369407 138.122 2.69355L134.98 4.54144C134.848 3.60797 134.318 2.76975 132.483 3.83658C131.196 4.56049 130.439 5.60826 130.439 6.78938C130.439 7.97051 131.064 8.08481 133.372 7.34185C137.592 6.04642 138.5 7.30375 138.5 9.66599C138.5 12.7331 136.494 15.9717 132.691 18.2006C128.887 20.4295 127.09 19.3817 126.749 16.5241L129.928 14.6572ZM49.3005 71.5607L52.3848 69.7509L58.7805 73.4848C58.6102 72.3036 58.3643 68.6841 58.1183 66.4171L61.846 64.2644L62.0163 71.1225L76.435 72.5132L72.7073 74.704L61.8838 73.5991L61.8081 75.3327L66.7468 78.1902L63.6625 80L49.3005 71.5607ZM63.6246 63.2357L66.7468 61.4259L78.5732 68.284L85.4231 64.3215L87.9776 65.7884L78.0245 71.5607L63.6246 63.2357ZM78.876 54.3963L93.238 62.7594L90.1158 64.5692L75.7538 56.2061L78.876 54.3963ZM97.0981 60.4924L82.755 52.1293L86.6341 49.8623C91.6485 50.7005 100.807 52.1293 103.059 52.6437L103.096 52.6056C101.431 51.8435 98.9525 50.3767 96.5872 49.0241L92.3297 46.5475L95.168 44.9092L109.53 53.2723L105.859 55.3869C101.507 54.663 91.1187 52.9104 88.7345 52.396L88.6966 52.4341C90.0401 53.1009 93.0488 54.7963 95.6222 56.3013L99.9743 58.835L97.0981 60.4924ZM102.113 40.8515L116.475 49.2146L113.352 51.0244L98.9903 42.6613L102.113 40.8515ZM105.992 38.6226L109.076 36.8128L115.472 40.5467C115.301 39.3655 115.055 35.746 114.809 33.479L118.537 31.3263L118.707 38.1844L133.126 39.5751L129.398 41.7659L118.575 40.661L118.499 42.3945L123.438 45.2521L120.354 47.0619L105.992 38.6226Z" fill="white"/>
</svg>
