<svg id="Capa_1" data-name="Capa 1" xmlns="http://www.w3.org/2000/svg" viewBox="0 0 282.6 113.7"><defs><style>.cls-1{fill:red;}</style></defs><path class="cls-1" d="M41.1,39.5V1.2H0A248,248,0,0,0,2.9,39.5Z" transform="translate(0 0)"/><path class="cls-1" d="M41.1,51.5H5.1c6.9,32.7,20.2,57.1,36,62.2Z" transform="translate(0 0)"/><path class="cls-1" d="M53.2,39.5V1.2H94.3a248,248,0,0,1-2.9,38.3Z" transform="translate(0 0)"/><path class="cls-1" d="M53.2,51.5h36c-6.9,32.7-20.2,57.1-36,62.2Z" transform="translate(0 0)"/><path d="M139.4,51a22.8,22.8,0,0,1-7-1,24.6,24.6,0,0,1-6.6-3.1l1.3-8.4h.4a17.8,17.8,0,0,0,6.2,3.3,19.8,19.8,0,0,0,5.7.9c5,0,7.5-1.8,7.5-5.6a6.3,6.3,0,0,0-1.1-3.5,11.4,11.4,0,0,0-3.8-3l-6-3.4a20.6,20.6,0,0,1-7.4-6.2,13.7,13.7,0,0,1-2.2-7.4,12.7,12.7,0,0,1,4.2-10c2.9-2.4,6.6-3.6,11.3-3.6a24,24,0,0,1,12,3.2l-1.3,8h-.3a16.9,16.9,0,0,0-4.9-2.1,20.7,20.7,0,0,0-5.3-.8c-4.3,0-6.5,1.7-6.5,5a5.7,5.7,0,0,0,1.1,3.3,15.3,15.3,0,0,0,4.5,3.3l5.3,3a20.6,20.6,0,0,1,7.3,6,13.5,13.5,0,0,1,2.2,7.8q0,6.8-4.5,10.5C148.5,49.8,144.4,51,139.4,51Z" transform="translate(0 0)"/><path d="M169.6,49.9a25.9,25.9,0,0,1-3.5-7.5,34.3,34.3,0,0,1-1.2-9.5V24.8h-5.7V17.2h5.7V7.5h8.9v9.7h7.7l-1.3,7.6h-6.4v7.4a25.4,25.4,0,0,0,1.6,9.6,26.9,26.9,0,0,0,4.2,7.6v.5Z" transform="translate(0 0)"/><path d="M194.8,50.4c-3.1,0-5.7-.8-7.5-2.5a9.1,9.1,0,0,1-2.8-7.1,9.1,9.1,0,0,1,3.2-7.3c2.2-1.8,5.1-2.8,8.8-3.2l9.1-.9h0a5.3,5.3,0,0,0-1.5-4.1c-.9-.9-2.7-1.3-5.3-1.3a30.5,30.5,0,0,0-6,.6,24.3,24.3,0,0,0-4.8,1.6h-.4l1.3-7.7A35.4,35.4,0,0,1,194,17a34.2,34.2,0,0,1,6.5-.6c4.9,0,8.4,1.2,10.7,3.5s3.5,5.6,3.5,10V40.3a41.9,41.9,0,0,0,.3,5,18.3,18.3,0,0,0,1.2,4.1v.5h-8.5c-.2-.7-.5-1.5-.7-2.5a25.1,25.1,0,0,1-.4-2.7h-.4a9.8,9.8,0,0,1-4.2,4.1A15.3,15.3,0,0,1,194.8,50.4Zm-1.1-10.3a3.2,3.2,0,0,0,.9,2.4,4.1,4.1,0,0,0,3.1,1,8,8,0,0,0,5.7-2,6.8,6.8,0,0,0,2.2-5.2v-.8l-6.9.8a9.6,9.6,0,0,0-3.8,1.1A3.2,3.2,0,0,0,193.7,40.1Z" transform="translate(0 0)"/><path d="M246.8,49.9v-5h-.4a10.3,10.3,0,0,1-4.3,4.2,13.5,13.5,0,0,1-6.4,1.6,13.8,13.8,0,0,1-7.6-2.2,14.2,14.2,0,0,1-5-6,19.9,19.9,0,0,1-1.9-9,21.3,21.3,0,0,1,1.8-9,14,14,0,0,1,5.1-5.9,13.1,13.1,0,0,1,7.6-2.2,14,14,0,0,1,6.1,1.4,9.1,9.1,0,0,1,4.1,3.6h.5V1.2h9.1V49.9Zm-8.2-7.1a7.4,7.4,0,0,0,5.9-2.6,9.7,9.7,0,0,0,2.3-6.7,9.7,9.7,0,0,0-2.3-6.7,7.4,7.4,0,0,0-5.9-2.5,7.6,7.6,0,0,0-6,2.5,10.1,10.1,0,0,0-2.1,6.8,10.1,10.1,0,0,0,2.1,6.7A7.6,7.6,0,0,0,238.6,42.8Z" transform="translate(0 0)"/><path d="M270.7,49.9a25.9,25.9,0,0,1-3.5-7.5,34.3,34.3,0,0,1-1.2-9.5V24.8h-5.7V17.2H266V7.5h9v9.7h7.6l-1.3,7.6H275v7.4a27.6,27.6,0,0,0,1.5,9.6,26.9,26.9,0,0,0,4.2,7.6v.5Z" transform="translate(0 0)"/><path d="M147.5,111.9H136.4c-1.1-2.4-2.2-5.4-3.5-9s-2.4-7.5-3.6-11.9-2.2-8.9-3.1-13.6-1.4-9.5-1.8-14.2h9.9A131.1,131.1,0,0,0,136,76.7c.8,4.7,1.7,9.3,2.8,13.7s2.2,8.5,3.4,12.3h.5l9.8-33h7.3l9.9,33h.4c1.2-3.8,2.3-7.8,3.3-12.3s2-9,2.8-13.7,1.3-9.1,1.7-13.5h9.7a117.3,117.3,0,0,1-1.8,14.2c-.9,4.7-1.9,9.3-3.1,13.6a113.8,113.8,0,0,1-3.6,11.9c-1.3,3.6-2.4,6.6-3.5,9H164.5l-8.2-27.4h-.5Z" transform="translate(0 0)"/><path d="M198.9,74.1a6.1,6.1,0,0,1-4.2-1.6,5.6,5.6,0,0,1-1.6-4.1,5.2,5.2,0,0,1,1.6-4,6.3,6.3,0,0,1,8.4,0,5.2,5.2,0,0,1,1.6,4,5.6,5.6,0,0,1-1.6,4.1A6.1,6.1,0,0,1,198.9,74.1Zm-4.5,37.8V79.3h9.1v32.6Z" transform="translate(0 0)"/><path d="M227.2,112.7a19.2,19.2,0,0,1-9.2-2.1,14,14,0,0,1-5.9-5.9,18,18,0,0,1-2.1-8.9,18.3,18.3,0,0,1,2.2-9.3,14.2,14.2,0,0,1,6-5.9,17.5,17.5,0,0,1,8.7-2.1c4.8,0,8.5,1.5,11.2,4.4s4.1,7,4.1,12.2v2l-22.5,2.6a6.7,6.7,0,0,0,3.2,4.2,12.6,12.6,0,0,0,5.7,1.2,27.4,27.4,0,0,0,6.4-.8,19,19,0,0,0,4.8-1.9h.5l-1.3,7.8a23.1,23.1,0,0,1-5.1,1.7A25.1,25.1,0,0,1,227.2,112.7Zm-.5-26.9a7.1,7.1,0,0,0-5,1.8,8.6,8.6,0,0,0-2.5,5.6l13.9-1.6a6.8,6.8,0,0,0-2.1-4.4A6.2,6.2,0,0,0,226.7,85.8Z" transform="translate(0 0)"/><path d="M248.5,111.9V79.3h8.2v5.5h.4a10.1,10.1,0,0,1,4.1-4.6,12.3,12.3,0,0,1,6.5-1.7c3.9,0,6.9,1.3,9,3.8s3.3,6,3.3,10.5v19.1h-9.1V94c0-5.1-2.1-7.6-6.3-7.6a6.4,6.4,0,0,0-5.1,2.2,9.1,9.1,0,0,0-2,6.1v17.2Z" transform="translate(0 0)"/></svg>