<?xml version="1.0" encoding="UTF-8"?>
<svg id="Ebene_1" xmlns="http://www.w3.org/2000/svg" version="1.1" viewBox="0 0 341.58 111.12">
  <!-- Generator: Adobe Illustrator 29.3.1, SVG Export Plug-In . SVG Version: 2.1.0 Build 151)  -->
  <defs>
    <style>
      .st0 {
        fill: #e6320f;
      }
    </style>
  </defs>
  <g>
    <path d="M257.97,84.73h2.16v6.07c0,2.45,1.75,3.48,3.34,3.48.65,0,1.34-.14,2.3-.67l-.74-1.66s-.65.46-1.27.46c-1.08,0-1.61-.62-1.61-1.7v-5.98h3.46v-1.82h-3.46v-3.38h-2.02v3.38h-2.16v1.82ZM254.3,82.61c-2.11,0-3.1,1.99-3.1,1.99v-1.7h-1.87v11.09h2.02v-7.63s.79-1.87,2.54-1.87c.84,0,1.27.24,1.27.24l.74-1.82s-.7-.29-1.61-.29M239.87,92.41c-2.23,0-3.7-1.78-3.7-3.96s1.46-3.96,3.7-3.96,3.7,1.78,3.7,3.96-1.46,3.96-3.7,3.96M239.87,82.61c-3.26,0-5.71,2.57-5.71,5.83s2.45,5.83,5.71,5.83,5.71-2.57,5.71-5.83-2.45-5.83-5.71-5.83M222.23,86.38s1.06-1.9,3.26-1.9,3.67,1.78,3.67,3.96-1.42,3.96-3.67,3.96-3.26-1.9-3.26-1.9v-4.13ZM220.22,82.9v16.61h2.02v-6.89c.38.5,1.54,1.66,3.58,1.66,3,0,5.38-2.57,5.38-5.83s-2.38-5.83-5.38-5.83c-2.64,0-3.74,1.9-3.74,1.9v-1.61h-1.85ZM213.93,89.72c0,1.73-1.54,2.64-3.14,2.64-2.66,0-3.67-2.59-3.67-2.59l-1.68,1.01s1.37,3.5,5.35,3.5c2.95,0,5.21-1.82,5.21-4.56s-1.61-3.79-4.18-4.97c-2.3-1.06-3.74-1.73-3.74-3.43,0-1.2.98-2.5,2.83-2.5,2.09,0,3.26,1.75,3.26,1.75l1.51-1.22s-1.61-2.45-4.78-2.45-4.85,2.45-4.85,4.42c0,2.86,2.16,3.98,4.61,5.11,1.87.86,3.26,1.54,3.26,3.29M191.61,90.49s-1.06,1.92-3.26,1.92-3.67-1.78-3.67-3.96,1.46-3.96,3.67-3.96,3.26,1.92,3.26,1.92v4.08ZM188.03,82.61c-3,0-5.38,2.57-5.38,5.83s2.38,5.83,5.38,5.83c2.66,0,3.74-1.9,3.74-1.9v1.61h1.85v-18.14h-2.02v8.42s-1.13-1.66-3.58-1.66M174.74,82.61c-2.4,0-3.41,1.85-3.41,1.85v-1.56h-1.87v11.09h2.02v-7.63s.96-1.87,2.76-1.87c1.49,0,2.66.82,2.66,2.71v6.79h2.02v-7.13c0-2.74-1.97-4.25-4.18-4.25M159.67,94.28c2.4,0,3.41-1.99,3.41-1.99v1.7h1.87v-11.09h-2.02v7.68s-.89,1.82-2.76,1.82c-1.49,0-2.66-.82-2.66-2.71v-6.79h-2.02v7.13c0,2.74,1.97,4.25,4.18,4.25M138.16,82.61c-2.4,0-3.41,1.85-3.41,1.85v-1.56h-1.87v11.09h2.02v-7.63s.96-1.87,2.76-1.87c1.49,0,2.66.82,2.66,2.71v6.79h2.02v-7.13c0-2.74-1.97-4.25-4.18-4.25M120.21,87.49c.14-1.15,1.13-3,3.53-3,2.23,0,3.36,1.75,3.43,3h-6.96ZM123.74,82.61c-3.34,0-5.54,2.59-5.54,5.83s2.42,5.83,5.78,5.83c2.93,0,4.61-2.18,4.61-2.18l-1.27-1.32s-1.15,1.63-3.34,1.63-3.7-1.56-3.82-3.24h8.95c.02-.26.02-.43.02-.65,0-3.58-2.3-5.9-5.4-5.9M111.72,79.35c0,.74.62,1.37,1.37,1.37s1.37-.62,1.37-1.37-.62-1.37-1.37-1.37-1.37.62-1.37,1.37M112.08,93.99h2.02v-11.09h-2.02v11.09ZM104.76,90.49s-1.06,1.92-3.26,1.92-3.67-1.78-3.67-3.96,1.46-3.96,3.67-3.96,3.26,1.92,3.26,1.92v4.08ZM101.18,82.61c-3,0-5.38,2.57-5.38,5.83s2.38,5.83,5.38,5.83c2.66,0,3.74-1.9,3.74-1.9v1.61h1.85v-18.14h-2.02v8.42s-1.13-1.66-3.58-1.66M83.9,87.49c.14-1.15,1.13-3,3.53-3,2.23,0,3.36,1.75,3.43,3h-6.96ZM87.43,82.61c-3.34,0-5.54,2.59-5.54,5.83s2.42,5.83,5.78,5.83c2.93,0,4.61-2.18,4.61-2.18l-1.27-1.32s-1.15,1.63-3.34,1.63-3.7-1.56-3.82-3.24h8.95c.02-.26.02-.43.02-.65,0-3.58-2.3-5.9-5.4-5.9M62.2,77.19v16.8h2.02v-13.13l5.74,9.31,5.74-9.34v13.15h2.02v-16.8h-1.94l-5.76,9.38-5.78-9.38h-2.02Z"/>
    <path d="M319.41,67.4l1.7.6,2.06-5.59-1.82-.62-1.94,5.62ZM317.46,52.61c-2.11,0-3.1,1.99-3.1,1.99v-1.7h-1.87v11.09h2.02v-7.63s.79-1.87,2.54-1.87c.84,0,1.27.24,1.27.24l.74-1.82s-.7-.29-1.61-.29M302.7,64.28c2.4,0,3.41-1.99,3.41-1.99v1.7h1.87v-11.09h-2.02v7.68s-.89,1.82-2.76,1.82c-1.49,0-2.66-.82-2.66-2.71v-6.79h-2.02v7.13c0,2.74,1.97,4.25,4.18,4.25M287.1,54.73h2.16v6.07c0,2.45,1.75,3.48,3.34,3.48.65,0,1.34-.14,2.3-.67l-.74-1.66s-.65.46-1.27.46c-1.08,0-1.61-.62-1.61-1.7v-5.98h3.46v-1.82h-3.46v-3.38h-2.02v3.38h-2.16v1.82ZM281.11,63.99h2.02v-18.14h-2.02v18.14ZM270.88,64.28c2.4,0,3.41-1.99,3.41-1.99v1.7h1.87v-11.09h-2.02v7.68s-.89,1.82-2.76,1.82c-1.49,0-2.66-.82-2.66-2.71v-6.79h-2.02v7.13c0,2.74,1.97,4.25,4.18,4.25M253.58,47.19h-2.02v16.8h2.02v-8.02l7.42,8.02h2.74l-7.9-8.59,7.1-8.21h-2.57l-6.79,7.9v-7.9ZM235.55,67.4l1.7.6,2.06-5.59-1.82-.62-1.94,5.62ZM225.09,54.73h2.16v6.07c0,2.45,1.75,3.48,3.34,3.48.65,0,1.34-.14,2.3-.67l-.74-1.66s-.65.46-1.27.46c-1.08,0-1.61-.62-1.61-1.7v-5.98h3.46v-1.82h-3.46v-3.38h-2.02v3.38h-2.16v1.82ZM212.97,61.95s1.63,2.33,4.75,2.33c2.14,0,4.39-1.1,4.39-3.24,0-2.26-1.8-3.05-3.91-3.5-1.82-.38-2.69-.84-2.69-1.68,0-.72.7-1.42,2.11-1.42,1.68,0,2.78,1.22,2.78,1.22l1.32-1.37s-1.49-1.68-4.1-1.68c-2.47,0-4.08,1.58-4.08,3.19,0,2.09,1.68,3.02,4.06,3.5,1.7.34,2.52.82,2.52,1.78,0,.89-1.27,1.37-2.4,1.37-2.18,0-3.36-1.8-3.36-1.8l-1.39,1.3ZM205,52.61c-2.4,0-3.41,1.85-3.41,1.85v-1.56h-1.87v11.09h2.02v-7.63s.96-1.87,2.76-1.87c1.49,0,2.66.82,2.66,2.71v6.79h2.02v-7.13c0-2.74-1.97-4.25-4.18-4.25M189.93,64.28c2.4,0,3.41-1.99,3.41-1.99v1.7h1.87v-11.09h-2.02v7.68s-.89,1.82-2.76,1.82c-1.49,0-2.66-.82-2.66-2.71v-6.79h-2.02v7.13c0,2.74,1.97,4.25,4.18,4.25M172.63,47.19h-2.02v16.8h2.02v-8.02l7.42,8.02h2.74l-7.9-8.59,7.1-8.21h-2.57l-6.79,7.9v-7.9ZM154.6,67.4l1.7.6,2.06-5.59-1.82-.62-1.94,5.62ZM146.88,52.61c-2.4,0-3.41,1.85-3.41,1.85v-1.56h-1.87v11.09h2.02v-7.63s.96-1.87,2.76-1.87c1.49,0,2.66.82,2.66,2.71v6.79h2.02v-7.13c0-2.74-1.97-4.25-4.18-4.25M128.92,57.49c.14-1.15,1.13-3,3.53-3,2.23,0,3.36,1.75,3.43,3h-6.96ZM132.45,52.61c-3.34,0-5.54,2.59-5.54,5.83s2.42,5.83,5.78,5.83c2.93,0,4.61-2.18,4.61-2.18l-1.27-1.32s-1.15,1.63-3.34,1.63-3.7-1.56-3.82-3.24h8.95c.02-.26.02-.43.02-.65,0-3.58-2.3-5.9-5.4-5.9M118.99,52.61c-2.4,0-3.41,1.85-3.41,1.85v-1.56h-1.87v11.09h2.02v-7.63s.96-1.87,2.76-1.87c1.49,0,2.66.82,2.66,2.71v6.79h2.02v-7.13c0-2.74-1.97-4.25-4.18-4.25M105.02,52.61c-1.92,0-2.93,1.15-3.26,1.63v-8.4h-2.02v18.14h2.02v-7.63s.96-1.87,2.76-1.87c1.49,0,2.66.82,2.66,2.71v6.79h2.02v-7.13c0-2.74-1.97-4.25-4.18-4.25M89.85,62.41c-2.23,0-3.7-1.78-3.7-3.96s1.46-3.96,3.7-3.96,3.7,1.78,3.7,3.96-1.46,3.96-3.7,3.96M89.85,52.61c-3.26,0-5.71,2.57-5.71,5.83s2.45,5.83,5.71,5.83,5.71-2.57,5.71-5.83-2.45-5.83-5.71-5.83M82.94,47.19h-2.14l-4.3,11.64-4.08-11.64h-1.46l-4.13,11.64-4.25-11.64h-2.26l6.46,17.28,4.85-13.22,4.82,13.22,6.48-17.28Z"/>
    <path d="M273.88,22.61c-2.42,0-3.31,2.06-3.31,2.06,0,0-.7-2.06-3.46-2.06-2.26,0-3.07,1.92-3.07,1.92v-1.63h-1.87v11.09h2.02v-7.73s.74-1.78,2.38-1.78c1.44,0,2.38.89,2.38,2.69v6.82h2.02v-7.73s.72-1.78,2.38-1.78c1.44,0,2.38.89,2.38,2.69v6.82h2.02v-7.13c0-2.74-1.54-4.25-3.84-4.25M252.38,34.28c2.4,0,3.41-1.99,3.41-1.99v1.7h1.87v-11.09h-2.02v7.68s-.89,1.82-2.76,1.82c-1.49,0-2.66-.82-2.66-2.71v-6.79h-2.02v7.13c0,2.74,1.97,4.25,4.18,4.25M240.95,19.35c0,.74.62,1.37,1.37,1.37s1.37-.62,1.37-1.37-.62-1.37-1.37-1.37-1.37.62-1.37,1.37M241.31,33.99h2.02v-11.09h-2.02v11.09ZM236.32,22.61c-2.11,0-3.1,1.99-3.1,1.99v-1.7h-1.87v11.09h2.02v-7.63s.79-1.87,2.54-1.87c.84,0,1.27.24,1.27.24l.74-1.82s-.7-.29-1.61-.29M218.68,27.49c.14-1.15,1.13-3,3.53-3,2.23,0,3.36,1.75,3.43,3h-6.96ZM222.21,22.61c-3.34,0-5.54,2.59-5.54,5.83s2.42,5.83,5.78,5.83c2.93,0,4.61-2.18,4.61-2.18l-1.27-1.32s-1.15,1.63-3.34,1.63-3.7-1.56-3.82-3.24h8.95c.02-.26.02-.43.02-.65,0-3.58-2.3-5.9-5.4-5.9M206.01,24.73h2.16v6.07c0,2.45,1.75,3.48,3.34,3.48.65,0,1.34-.14,2.3-.67l-.74-1.66s-.65.46-1.27.46c-1.08,0-1.61-.62-1.61-1.7v-5.98h3.46v-1.82h-3.46v-3.38h-2.02v3.38h-2.16v1.82ZM193.89,31.95s1.63,2.33,4.75,2.33c2.14,0,4.39-1.1,4.39-3.24,0-2.26-1.8-3.05-3.91-3.5-1.82-.38-2.69-.84-2.69-1.68,0-.72.7-1.42,2.11-1.42,1.68,0,2.78,1.22,2.78,1.22l1.32-1.37s-1.49-1.68-4.1-1.68c-2.47,0-4.08,1.58-4.08,3.19,0,2.09,1.68,3.02,4.06,3.5,1.7.34,2.52.82,2.52,1.78,0,.89-1.27,1.37-2.4,1.37-2.18,0-3.36-1.8-3.36-1.8l-1.39,1.3ZM187.36,19.35c0,.74.62,1.37,1.37,1.37s1.37-.62,1.37-1.37-.62-1.37-1.37-1.37-1.37.62-1.37,1.37M187.72,33.99h2.02v-11.09h-2.02v11.09ZM178.67,22.61c-2.4,0-3.41,1.85-3.41,1.85v-1.56h-1.87v11.09h2.02v-7.63s.96-1.87,2.76-1.87c1.49,0,2.66.82,2.66,2.71v6.79h2.02v-7.13c0-2.74-1.97-4.25-4.18-4.25M166.15,19.35c0,.74.62,1.37,1.37,1.37s1.37-.62,1.37-1.37-.62-1.37-1.37-1.37-1.37.62-1.37,1.37M166.51,33.99h2.02v-11.09h-2.02v11.09ZM157.8,22.61c-2.42,0-3.31,2.06-3.31,2.06,0,0-.7-2.06-3.46-2.06-2.26,0-3.07,1.92-3.07,1.92v-1.63h-1.87v11.09h2.02v-7.73s.74-1.78,2.38-1.78c1.44,0,2.38.89,2.38,2.69v6.82h2.02v-7.73s.72-1.78,2.38-1.78c1.44,0,2.38.89,2.38,2.69v6.82h2.02v-7.13c0-2.74-1.54-4.25-3.84-4.25M133,31.95s1.63,2.33,4.75,2.33c2.14,0,4.39-1.1,4.39-3.24,0-2.26-1.8-3.05-3.91-3.5-1.82-.38-2.69-.84-2.69-1.68,0-.72.7-1.42,2.11-1.42,1.68,0,2.78,1.22,2.78,1.22l1.32-1.37s-1.49-1.68-4.1-1.68c-2.47,0-4.08,1.58-4.08,3.19,0,2.09,1.68,3.02,4.06,3.5,1.7.34,2.52.82,2.52,1.78,0,.89-1.27,1.37-2.4,1.37-2.18,0-3.36-1.8-3.36-1.8l-1.39,1.3ZM121.05,27.49c.14-1.15,1.13-3,3.53-3,2.23,0,3.36,1.75,3.43,3h-6.96ZM124.58,22.61c-3.34,0-5.54,2.59-5.54,5.83s2.42,5.83,5.78,5.83c2.93,0,4.61-2.18,4.61-2.18l-1.27-1.32s-1.15,1.63-3.34,1.63-3.7-1.56-3.82-3.24h8.95c.02-.26.02-.43.02-.65,0-3.58-2.3-5.9-5.4-5.9M112.84,30.49s-1.06,1.92-3.26,1.92-3.67-1.78-3.67-3.96,1.46-3.96,3.67-3.96,3.26,1.92,3.26,1.92v4.08ZM109.27,22.61c-3,0-5.38,2.57-5.38,5.83s2.38,5.83,5.38,5.83c2.66,0,3.74-1.9,3.74-1.9v1.61h1.85V15.85h-2.02v8.42s-1.13-1.66-3.58-1.66M95.97,22.61c-2.4,0-3.41,1.85-3.41,1.85v-1.56h-1.87v11.09h2.02v-7.63s.96-1.87,2.76-1.87c1.49,0,2.66.82,2.66,2.71v6.79h2.02v-7.13c0-2.74-1.97-4.25-4.18-4.25M80.9,34.28c2.4,0,3.41-1.99,3.41-1.99v1.7h1.87v-11.09h-2.02v7.68s-.89,1.82-2.76,1.82c-1.49,0-2.66-.82-2.66-2.71v-6.79h-2.02v7.13c0,2.74,1.97,4.25,4.18,4.25M64.22,24.44v-5.33h2.74c1.9,0,3.05,1.03,3.05,2.66s-1.15,2.66-3.05,2.66h-2.74ZM67.46,32.07h-3.24v-5.76h3.24c2.4,0,3.46,1.3,3.46,2.88s-1.06,2.88-3.46,2.88M62.2,33.99h5.26c3.31,0,5.47-1.87,5.47-4.8,0-3.34-2.57-4.08-2.81-4.13.24-.05,1.9-1.01,1.9-3.29,0-2.81-1.94-4.58-5.4-4.58h-4.42v16.8Z"/>
  </g>
  <polygon class="st0" points="43.23 22.68 43.23 17.01 17.01 17.01 19.65 22.68 43.23 22.68"/>
  <polygon class="st0" points="24.94 34.02 43.23 34.02 43.23 28.35 22.29 28.35 24.94 34.02"/>
</svg>